<?xml version="1.0" encoding="UTF-8"?>
<svg width="64px" height="64px" viewBox="0 0 64 64" version="1.1" xmlns="http://www.w3.org/2000/svg" xmlns:xlink="http://www.w3.org/1999/xlink">
    <!-- Generator: Sketch 56.3 (81716) - https://sketch.com -->
    <title>Lucy badge</title>
    <desc>Created with Sketch.</desc>
    <defs>
        <circle id="path-1" cx="28.4666667" cy="28.4666667" r="28.4666667"></circle>
    </defs>
    <g id="Sarah-&amp;-Lucy" stroke="none" stroke-width="1" fill="none" fill-rule="evenodd">
        <g id="Web—Features-Copy" transform="translate(-943.000000, -1304.000000)">
            <g id="Group-4" transform="translate(30.000000, 1126.000000)">
                <g id="Map" transform="translate(10.000000, 10.000000)">
                    <g id="Lucy-badge" transform="translate(906.266667, 171.733333)">
                        <circle id="Background" stroke="#0FA3B1" stroke-width="3" fill="#F2F2F2" cx="28.4666667" cy="28.4666667" r="29.9666667"></circle>
                        <g id="Human">
                            <mask id="mask-2" fill="white">
                                <use xlink:href="#path-1"></use>
                            </mask>
                            <use id="Mask" fill="#F2F2F2" xlink:href="#path-1"></use>
                            <g id="Group-3" mask="url(#mask-2)">
                                <g transform="translate(37.800000, 49.159911) scale(-1, 1) translate(-37.800000, -49.159911) translate(0.000000, -5.906756)" id="Humaaan">
                                    <g>
                                        <g id="Head/Front/Airy" transform="translate(41.849712, 15.416014) rotate(7.000000) translate(-41.849712, -15.416014) translate(24.603144, 2.233312)">
                                            <g id="Head" stroke-width="1" transform="translate(13.500000, 7.750000)" fill="#FFD3A1">
                                                <path d="M2.06556847,8.62253169 C0.913591087,7.27034397 0.133908699,5.61321928 0.264194084,3.75636347 C0.639582555,-1.59375514 8.08713266,-0.416797214 9.53583534,2.28348323 C10.984538,4.98376367 10.8123945,11.833249 8.94007535,12.3158644 C8.19339726,12.5083307 6.60275117,12.0368655 4.98384434,11.0610773 L6,18.25 L0,18.25 L2.06556847,8.62253169 Z" id="Head-[skin]"></path>
                                            </g>
                                            <path d="M19.6159875,6.92131419 C18.8252049,6.79163445 16.6959878,6.70247604 16.3033221,6.7025336 C16.0523902,6.7025336 15.7804565,6.75986206 15.6318368,6.52945461 C15.5101294,6.34077721 15.5547153,6.02167182 15.5183925,5.80271855 C15.4762166,5.54836669 15.4163097,5.29729567 15.3557142,5.0468578 C15.183281,4.33422363 14.9225368,3.65623979 14.5577014,3.0196982 C13.8731331,1.82547045 12.8702662,0.890026572 11.6041877,0.345694015 C10.206073,-0.255333854 8.62399129,-0.392956689 7.12012138,-0.271047377 C5.51078319,-0.14061938 4.05396659,0.390647354 2.53448876,0.890602159 C1.08650901,1.36701546 -0.430099725,1.55454168 -1.94452794,1.32188944 C-3.47037519,1.08751045 -4.62329621,0.26050715 -5.91031919,-0.524420743 C-7.22786944,-1.32799765 -8.73357558,-1.85356608 -10.2911551,-1.73275038 C-11.7451026,-1.61993534 -13.0851466,-1.01959818 -14.2874163,-0.21763291 C-15.4122774,0.532702208 -16.3404328,1.43545274 -16.8644461,2.70600333 C-17.4281678,4.07273449 -17.4276513,5.57294425 -16.5006436,6.78081342 C-15.1569845,8.53163374 -12.6625275,8.98439041 -10.5872467,8.93937951 C-9.38687071,8.91342054 -8.2079556,8.6942946 -7.07465925,8.29570065 C-5.56327229,7.76408857 -4.25719846,6.86306479 -2.84324629,6.13201184 C-2.17967976,5.78896203 -1.49379159,5.50721223 -0.774851343,5.30426028 C-0.0771998499,5.10723687 0.609950721,5.01686972 1.24161281,5.43831447 C1.90982729,5.8841641 2.50860943,6.3221282 3.27305368,6.6012303 C4.00639684,6.86899334 4.78317824,7.01876106 5.56449283,7.01271739 C7.08465925,7.00097542 8.58319262,6.52732494 10.0596339,6.21006142 C11.263625,5.95139266 12.551853,5.69358727 13.7793133,5.94224083 C14.2915059,6.04601915 15.0396536,6.2602526 15.2246535,6.79255539 C12.1110437,7.35686082 10.8881768,11.2075374 11.7659507,14.0343023 C12.2396972,15.5600106 15.0874529,17.3435474 16.1946978,16.5414595 C16.8961693,16.0333138 16.470304,15.3662105 16.1946978,14.9258289 C15.6668973,14.0824789 15.4863159,12.9991668 16.4629591,12.4120106 C17.3053856,11.9056092 18.1911391,13.1081781 18.2078946,13.1068542 C18.4394314,13.0886081 20.4401101,11.9571364 21.8185413,10.3060323 C23.1783688,10.3866414 23.3846743,9.49000613 23.0599741,8.756727 C22.7352739,8.02344786 20.7086,7.10060952 19.6159875,6.92131419 Z" id="hair" fill="#3D2216"></path>
                                        </g>
                                        <g id="Bottom/Standing/Skirt" transform="translate(0.000000, 49.773422)">
                                            <path d="M24.676649,24.6246211 C30.7539505,26.3091023 35.9972626,27.151343 40.4065852,27.151343 C44.8159078,27.151343 48.9114905,25.8543073 52.6933333,23.2602361 C46.746141,21.5312694 41.8483632,20.6667861 38,20.6667861 C34.1516368,20.6667861 29.7105198,21.9860644 24.676649,24.6246211 Z" id="Skirt-Shadow" fill="#002C5C"></path>
                                            <path d="M45.6675983,29.579329 C45.6089986,29.4920297 45.559511,29.3970656 45.5202586,29.294197 C44.7079213,27.1653109 31.6962775,4.19887873 30.4,0 L45.0492754,0 C46.0348536,3.19246679 50.4708445,23.2267179 51.0951345,27.2238463 C53.0648842,33.5288834 57.1204019,53.948597 57.6381221,55.3632123 C58.182755,56.8513636 55.1182866,58.4016326 54.301678,56.572135 C53.0023157,53.6610956 49.9063243,45.6063017 48.5278076,40.6881007 C47.2354512,36.0772979 46.1831279,31.9291635 45.6675983,29.579329 Z" id="Leg-[skin]" fill="#FFD3A1"></path>
                                            <path d="M45.6675983,29.579329 C45.6089986,29.4920297 45.559511,29.3970656 45.5202586,29.294197 C44.7079213,27.1653109 31.6962775,4.19887873 30.4,0 L45.0492754,0 C46.0348536,3.19246679 50.4708445,23.2267179 51.0951345,27.2238463 C53.0648842,33.5288834 57.1204019,53.948597 57.6381221,55.3632123 C58.182755,56.8513636 55.1182866,58.4016326 54.301678,56.572135 C53.0023157,53.6610956 49.9063243,45.6063017 48.5278076,40.6881007 C47.2354512,36.0772979 46.1831279,31.9291635 45.6675983,29.579329 Z" id="Shadow" fill-opacity="0.1" fill="#000000"></path>
                                            <path d="M33.6824557,32.3833294 C27.7337461,33.873257 5.97462061,36.5667826 4.48141412,36.9892553 C2.94537052,37.4238478 1.59855419,34.2863043 3.49718705,33.6066592 C6.51823249,32.5252291 14.8425801,30.0265386 19.8896622,29.0068724 C23.9492293,28.1867146 27.6536342,27.5174669 30.1406741,27.1255628 C29.9299778,20.2025373 28.9668314,3.58833779 29.5981208,1.42108547e-14 L42.56,1.42108547e-14 C41.9546359,3.44097466 36.8372285,28.5483801 35.8860853,31.0615604 C35.584239,31.9587826 34.6835928,32.3552886 33.6824557,32.3833294 L33.6824557,32.3833294 Z" id="Leg-[skin]" fill="#FFD3A1"></path>
                                            <g id="Shoe/Flat-Sneaker-Shoe" transform="translate(6.206667, 39.414226) rotate(80.000000) translate(-6.206667, -39.414226) translate(-1.520000, 34.393305)" fill="#E4E4E4">
                                                <path d="M0.245901639,8.02641771 C0.245901639,8.02641771 0.245901639,8.02641771 0.245901639,8.02641771 C0.245901639,8.47723926 0.319773985,9.13510002 0.467518676,10 C0.981929796,10 5.60502916,10 14.3368168,10 C14.6972306,8.78862681 14.4891788,8.13464541 13.7126614,8.03805579 C12.9361439,7.94146617 12.2910776,7.85425347 11.7774625,7.77641771 L6.04838934,5.17980082 C5.5453598,4.95181019 4.95275086,5.17477328 4.72476024,5.67780282 C4.71921253,5.69004306 4.71391213,5.70239389 4.70886227,5.71484777 L4.5893147,6.00967376 C3.87046259,6.35066304 3.28632063,6.52115768 2.8368888,6.52115768 C2.68283933,6.52115768 2.50402814,6.49447289 2.30045524,6.4411033 L2.30046838,6.44105319 C1.42489574,6.21150914 0.529021645,6.73521878 0.29947759,7.61079143 C0.263907442,7.74647017 0.245901639,7.88615382 0.245901639,8.02641771 Z" id="shoe"></path>
                                            </g>
                                            <g id="Shoe/Flat-Sneaker-Shoe" transform="translate(52.693333, 49.958159)" fill="#E4E4E4">
                                                <path d="M0.245901639,8.02641771 C0.245901639,8.02641771 0.245901639,8.02641771 0.245901639,8.02641771 C0.245901639,8.47723926 0.319773985,9.13510002 0.467518676,10 C0.981929796,10 5.60502916,10 14.3368168,10 C14.6972306,8.78862681 14.4891788,8.13464541 13.7126614,8.03805579 C12.9361439,7.94146617 12.2910776,7.85425347 11.7774625,7.77641771 L6.04838934,5.17980082 C5.5453598,4.95181019 4.95275086,5.17477328 4.72476024,5.67780282 C4.71921253,5.69004306 4.71391213,5.70239389 4.70886227,5.71484777 L4.5893147,6.00967376 C3.87046259,6.35066304 3.28632063,6.52115768 2.8368888,6.52115768 C2.68283933,6.52115768 2.50402814,6.49447289 2.30045524,6.4411033 L2.30046838,6.44105319 C1.42489574,6.21150914 0.529021645,6.73521878 0.29947759,7.61079143 C0.263907442,7.74647017 0.245901639,7.88615382 0.245901639,8.02641771 Z" id="shoe"></path>
                                            </g>
                                            <path d="M29.64,8.8817842e-16 C35.351866,-1.6194324 40.7563104,-1.6194324 45.8533333,8.8817842e-16 C47.6266667,8.01777444 51.9355981,11.2000353 52.6933333,23.4926173 C44.08,27.7337383 33.44,20.4678972 24.5733333,24.6038438 C22.04,18.818688 25.5866667,4.8864899 29.64,8.8817842e-16 Z" id="Skirt" fill="#446B8D"></path>
                                        </g>
                                        <g id="Body/Long-Sleeve" transform="translate(38.043899, 46.491559) rotate(7.000000) translate(-38.043899, -46.491559) translate(5.579772, 22.788047)">
                                            <path d="M48.75,16.4150114 L58.7749489,15.0614051 C60.7803455,13.9572473 62.625213,13.2097518 64.3095515,12.8189186 C64.7835418,12.8052195 65.5375694,12.9757835 64.4142773,13.90275 C63.2909853,14.8297165 62.1512471,15.855135 62.3513837,16.3498408 C62.5515203,16.8445466 63.5961677,16.6604829 63.7692245,17.4213825 C63.8845957,17.928649 62.1891966,18.0110747 58.6830271,17.6686598 L50.5486399,20.8609626 L48.75,16.4150114 Z M17.257955,18.7119525 L22.8178396,18.7326073 C16.7212752,32.3132966 13.542432,39.4239303 13.2813099,40.0645083 C12.6937851,41.5058088 13.9370664,43.7008844 14.4687429,44.8805017 C12.7370905,45.6475235 12.9215999,42.8069286 10.7371669,43.8129205 C8.74331781,44.7311432 7.22660176,46.3949013 4.92299722,44.9878901 C4.63978258,44.8149064 4.32942547,44.1635913 5.07928748,43.654623 C6.94746719,42.3865974 9.63962735,40.1673241 10.0033806,39.4368331 C10.4994231,38.4406781 12.9176146,31.5323846 17.257955,18.7119525 Z" id="Arms-[skin]" fill="#FFD3A1"></path>
                                            <path d="M31.3626154,2.44174021 L35.7242777,2.34830779 C37.6291198,11.8197056 43.9752046,17.3522735 56.8213179,14.1674265 L59.6293935,26.333412 C47.5917585,28.9559018 36.4931169,25.0653886 33.1621932,12.1941314 C32.2999223,8.86216956 31.5447872,5.38217256 31.3626154,2.44174021 Z" id="Clothes-Back" fill="#9AD2CB" transform="translate(45.496004, 14.727311) rotate(5.000000) translate(-45.496004, -14.727311) "></path>
                                            <path d="M30.3394652,0.00400619797 L36.9351339,1.49929411 C36.9351339,12.7288126 40.5488345,19.8934309 42.4023438,28.1497326 L24.5892091,28.1497326 C24.3382799,31.0026323 24.1841866,33.9348961 24.1038892,36.9465241 L10.7660403,36.9465241 C13.7884717,21.027841 20.1678017,8.71233302 29.9040304,0 L30.3359962,0 L30.3394652,0.00400619797 Z" id="Clothes" fill="#C1DEE2"></path>
                                            <path d="M27.3996464,12.12933 C26.9405864,19.1268709 27.2105727,24.467005 28.2096052,28.1497326 L24.5892091,28.1497326 C25.086299,22.4981455 25.9634065,17.1580113 27.3996464,12.12933 Z" id="Shade" fill-opacity="0.1" fill="#000000"></path>
                                        </g>
                                    </g>
                                </g>
                            </g>
                            <g id="Group" mask="url(#mask-2)">
                                <g transform="translate(1.866667, 28.000000)">
                                    <path d="M7.46666667,25.2 C7.46666667,25.2 7.78441321,34.7624618 12.1590891,39.8942499 C14.0370807,42.0967875 16.1889918,44.2509723 16.2218621,45.0079058 C16.404475,49.1957492 14.0400025,46.5562595 14.3588447,49.4666667 C15.3329022,49.4666667 19.1199297,49.4666667 19.1199297,49.4666667 C19.1199297,49.4666667 19.9997589,43.6476299 19.5340958,41.4810014 C19.0684328,39.3147283 20.8138474,35.9599027 22.2112017,32.7149373 C23.6085561,29.469972 16.7908841,25.2 16.7908841,25.2 L11.8227161,26.1400338 L7.46666667,25.2" id="Fill-79" fill="#1A1A1A"></path>
                                    <path d="M39.2,35.4803411 C39.2,35.4803411 41.3804458,39.3236714 45.3975956,40.8275832 C48.2340342,41.889921 49.5835811,45.1846612 49.6177276,45.9412391 C49.8074306,50.1290825 47.3511567,47.4899483 47.682378,50.4 C48.694633,50.4 52.6286929,50.4 52.6286929,50.4 C52.6286929,50.4 53.5426818,44.5809633 53.0585598,42.4146902 C52.5748173,40.2484172 50.9619628,37.1403327 52.4135698,33.8957228 C53.8651768,30.6507575 50.208842,26.1333333 50.208842,26.1333333 L45.0477834,27.0737227 C45.0477834,27.0737227 41.2844561,31.0034479 40.6929623,32.2627519 C40.1018479,33.5224114 39.2,35.4803411 39.2,35.4803411" id="Fill-80" fill="#1A1A1A"></path>
                                    <path d="M51.3333333,20.5333333 C51.3333333,20.5333333 56.696927,20.5874338 59.617985,24.8739946 C62.5386733,29.1605553 67.4640527,31.5478288 70.4383621,30.8968198 C70.4383621,30.8968198 70.2157419,31.3851667 69.6595612,31.6293402 C69.6595612,31.6293402 72.8864447,32.253299 74.6666667,31.4663174 C74.6666667,31.4663174 72.6775071,36.9466953 65.7515043,36.6210104 C65.7515043,36.6210104 66.0018596,37.1093574 66.2936326,37.3333333 C66.2936326,37.3333333 60.7170336,37.1620152 58.1990586,32.8772578 C55.4732555,28.2379619 52.4689922,26.447597 52.4689922,26.447597 L51.3333333,20.5333333" id="Fill-81" fill="#1A1A1A"></path>
                                    <path d="M21.9680951,12.3140103 C21.1325826,10.5711749 19.1262434,2.97610088 14.0181565,0.644606597 C8.91043931,-1.6865261 6.73625829,3.05275671 5.26967504,3.07842918 C3.80272209,3.10410165 2.28327234,2.95042841 0.85587684,3.02708424 C0.85587684,3.02708424 0.319078533,2.9121005 0.0832126108,3.60381088 C-0.152653312,4.29552127 0.187836523,4.96155918 0.187836523,4.96155918 C0.187836523,4.96155918 -0.052465749,6.02461644 0.427769099,6.57567061 C0.908373644,7.1263632 0.986749154,7.40803721 0.947561399,7.63872787 C0.908373644,7.86941853 0.187836523,8.63778474 2.23114523,9.38084007 C4.27408424,10.1238954 7.54847997,11.8529906 7.90190915,14.9658681 C7.90190915,14.9658681 3.87887942,28.559984 12.200732,34.7076369 C20.5225845,40.8556513 41.1194468,34.5745739 47.7673167,39.0911209 C49.5743898,40.3186989 56.8710759,30.8155456 57.8666667,28.2023773 C57.8666667,28.2023773 55.4614258,20.8661975 47.7673167,19.9412653 C37.1622229,18.6666814 24.2339607,17.0409993 21.9680951,12.3140103" id="Fill-82" fill="#3D3C3B"></path>
                                    <path d="M10.2948714,14.3218269 C8.45966557,14.1211708 7.38761089,13.5665405 6.77435766,13.0666667 C7.1648512,13.6580368 7.43770335,14.3250063 7.52726261,15.075347 C7.52726261,15.075347 6.00209879,19.9953066 6.730337,25.2 C6.57626472,23.1959122 7.79669936,20.8353772 12.7205612,19.6028261 C17.6763,18.3625032 23.3333333,14.0861973 23.3333333,14.0861973 L18.9597297,14.0724199 C18.9597297,14.0724199 13.9311291,14.7196064 10.2948714,14.3218269" id="Fill-83" fill="#1A1A1A"></path>
                                    <path d="M6.06573333,11.6596667 L6.062,11.6643333 C6.0648,11.6671333 6.0676,11.6708667 6.07133333,11.6736667 C6.0704,11.6718 6.06573333,11.6596667 6.06573333,11.6596667" id="Fill-84" fill="#CA8A34"></path>
                                    <path d="M48.5333333,38.7065725 C48.5333333,38.7065725 51.2571882,41.4854319 53.9661951,42.6946054 C56.6752021,43.9034235 58.0616286,47.0513279 58.0954077,47.8082613 C58.2810069,51.9961047 55.8774964,49.356615 56.2015527,52.2666667 C57.1919104,52.2666667 61.0408681,52.2666667 61.0408681,52.2666667 C61.0408681,52.2666667 61.9350854,46.4479855 61.4618072,44.2813569 C60.9885291,42.1150839 59.4101929,39.0073549 60.8303985,35.7623895 C62.2509753,32.5174241 58.673735,28 58.673735,28 L53.6243213,28.9403893 C53.6243213,28.9403893 49.942403,32.8701146 49.3637045,34.1297741 C48.7850059,35.3890781 48.5333333,38.7065725 48.5333333,38.7065725" id="Fill-86" fill="#3D3C3B"></path>
                                    <path d="M15.1861898,33.8410799 C15.1861898,33.8410799 13.7963839,38.4374327 17.7017237,42.6946054 C19.6652286,44.8349244 21.7539775,47.0513279 21.7870331,47.8082613 C21.9706756,51.9961047 19.5928734,49.356615 19.9135131,52.2666667 C20.8934291,52.2666667 24.7018057,52.2666667 24.7018057,52.2666667 C24.7018057,52.2666667 25.5865949,46.4479855 25.1179394,44.2813569 C24.6496513,42.1150839 26.4049056,38.7599027 27.8101374,35.5152929 C29.2153692,32.2703275 22.3592629,28 22.3592629,28 L17.3630871,28.9403893 C17.3630871,28.9403893 15.7609906,30.1324972 15.1883935,31.3921567 C14.6157964,32.6514607 15.1861898,33.8410799 15.1861898,33.8410799" id="Fill-87" fill="#3D3C3B"></path>
                                    <path d="M16.7347832,1.45216067 C18.5932422,3.5269346 20.5784677,3.33719243 21.3320239,4.59742024 C22.4713571,6.50227582 16.0645642,9.50275079 13.9889589,12.7474834 C13.0002587,14.2933865 10.5975647,9.83019763 11.3401658,7.78091145 C12.0823756,5.73162527 13.8911453,1.68544441 13.3829057,0.13493941 C13.3829057,0.13493941 14.8763242,-0.622613262 16.7347832,1.45216067" id="Fill-88" fill="#1A1A1A"></path>
                                    <path d="M0.968910006,2.8 C0.90534921,2.80277829 0.841788415,2.8052093 0.77856392,2.80868217 C0.77856392,2.80868217 0.290255586,2.69824496 0.0756958635,3.36260465 C-0.138863859,4.02696434 0.170868907,4.66666667 0.170868907,4.66666667 C0.170868907,4.66666667 1.2312244,4.54407442 1.6936376,3.81581395 C2.33832566,2.80034729 0.974290814,2.80416744 0.968910006,2.8" id="Fill-89" fill="#040404"></path>
                                    <path d="M1.02895646,7.89626111 C1.5329162,8.07583355 2.62316755,8.4 3.92201761,8.4 C4.7025091,8.4 5.55794844,8.28274831 6.40637296,7.94651183 C6.52747097,7.89847805 6.56919072,7.79206475 6.49978088,7.70855987 C6.43037104,7.62480866 6.27567571,7.59623471 6.15457769,7.64402217 C3.68203679,8.62415765 1.02858726,7.49795021 1.00200477,7.48637283 C0.980221895,7.4770124 0.956962215,7.47085423 0.933333333,7.46666667 C1.06513819,7.62456233 1.08581346,7.73491686 1.06181538,7.83172341 C1.05738496,7.84896631 1.04483212,7.87064309 1.02895646,7.89626111" id="Fill-90" fill="#040404"></path>
                                    <path d="M8.8923869,2.04523703 C8.44278218,1.71269363 7.84330922,1.85825135 7.55047456,2.36844981 C7.51760872,2.42592645 7.49000141,2.48713533 7.46666667,2.54909067 C7.80189826,2.49236048 8.15619203,2.57148416 8.46085839,2.79728524 C8.7674967,3.02420599 8.97323687,3.36197454 9.06296062,3.73333333 C9.1033856,3.68406764 9.14150998,3.63069648 9.17569046,3.57135372 C9.46852511,3.06078203 9.34166296,2.37778043 8.8923869,2.04523703" id="Fill-91" fill="#040404"></path>
                                    <path d="M7.14985055,14.4895538 C7.14985055,14.4895538 16.820923,14.8396866 22.2577236,11.2 C22.2577236,11.2 22.9977702,12.0538016 23.3333333,13.3932712 C23.3333333,13.3932712 16.5230213,18.1465353 6.53333333,17.7042809 C6.53333333,17.7042809 7.03121712,15.9416166 7.14985055,14.4895538" id="Fill-92" fill="#FFF999"></path>
                                    <path d="M8.4,17.7335119 C8.4,18.7644564 7.77339901,19.6 7.00019704,19.6 C6.22699507,19.6 5.6,18.7644564 5.6,17.7335119 C5.6,16.7025675 6.22699507,15.8666667 7.00019704,15.8666667 C7.77339901,15.8666667 8.4,16.7025675 8.4,17.7335119" id="Fill-93" fill="#FFF999"></path>
                                    <path d="M45.6922021,31.7333333 C45.6922021,31.7333333 44.0762182,34.6911143 45.1938965,37.0953839 C46.491421,37.3670281 47.6262067,37.7419992 48.5333333,38.2666667 C48.5333333,38.2666667 45.2811877,36.236638 45.6922021,31.7333333" id="Fill-94" fill="#1A1A1A"></path>
                                    <path d="M14.9053793,35.4666667 C14.8983419,35.3668333 14.6555521,31.6514732 16.8,28.9333333 C16.8,28.9333333 13.498684,31.2725517 13.0666667,34.5896917 C13.6374769,34.9240779 14.2532482,35.2135575 14.9053793,35.4666667" id="Fill-95" fill="#1A1A1A"></path>
                                </g>
                            </g>
                        </g>
                    </g>
                </g>
            </g>
        </g>
    </g>
</svg>