<?xml version="1.0" encoding="UTF-8"?>
<svg viewBox="0 0 50 50" xmlns="http://www.w3.org/2000/svg" xmlns:xlink="http://www.w3.org/1999/xlink">
<defs>
<path id="a" d="m43.75 27.99c0 1.78-1.76 3.1-3.52 3.55-1.76 0-3.52-1.77-3.52-3.55 0-1.77 2.1-3.55 3.52-3.55 1.76 0 3.52 1.78 3.52 3.55zm-2.93-10.65c0 2.07-2.17 4.14-4.11 4.14-1.95 0-4.11-2.07-4.11-4.14s2.46-4.15 4.11-4.15c2.05 0 4.11 2.08 4.11 4.15zm-25.24 24.88c-2.54-0.48-3.96-3.56-3.96-6.5 0-3.53 5.64-15.47 11.89-16.01 6.24-0.55 11.92 11.77 13.2 14.93 1.27 3.16-0.7 6.36-4.11 7.58-3.4 1.22-4.37-1.91-8.9-1.91-4.52 0-5.12 2.48-8.12 1.91zm1.76-30.5c0-3.11 4.5-6.22 6.46-6.22 3.17 0 6.45 3.11 6.45 6.22 0 3.1-3.22 6.21-6.45 6.21-2.59 0-6.46-3.11-6.46-6.21zm-1.76 7.99c0 2.07-2.16 4.14-4.1 4.14-1.95 0-3.73-2.09-3.73-4.16s1.67-4.13 3.73-4.13c1.65 0 4.1 2.07 4.1 4.15z"/>
</defs>
<use fill="#002c5c" xlink:href="#a"/>
<use fill-opacity="0" stroke="#000000" stroke-opacity="0" xlink:href="#a"/>
</svg>
