<?xml version="1.0" encoding="UTF-8"?>
<svg width="272px" height="201px" viewBox="0 0 272 201" version="1.1" xmlns="http://www.w3.org/2000/svg" xmlns:xlink="http://www.w3.org/1999/xlink">
    <!-- Generator: Sketch 56.3 (81716) - https://sketch.com -->
    <title>Group</title>
    <desc>Created with Sketch.</desc>
    <g id="Sarah-&amp;-Lucy" stroke="none" stroke-width="1" fill="none" fill-rule="evenodd">
        <g id="Web—Features-Copy" transform="translate(-554.000000, -540.000000)">
            <g id="Group-2" transform="translate(176.000000, 377.000000)">
                <g id="Group" transform="translate(378.000000, 165.000000)">
                    <path d="M26,99 C26,99 27.1915495,134.465174 43.5965842,153.497905 C50.6390527,161.666657 58.7087191,169.656079 58.8319829,172.463387 C59.5167814,187.995224 50.6500095,178.205907 51.8456678,189 C55.4983834,189 69.6997362,189 69.6997362,189 C69.6997362,189 72.9990958,167.418408 71.2528594,159.382835 C69.506623,151.34858 76.0519278,138.906233 81.2920065,126.871334 C86.5320852,114.836434 60.9658152,99 60.9658152,99 L42.3351852,102.486389 L26,99" id="Fill-79" fill="#1A1A1A"></path>
                    <path d="M142,136.6661 C142,136.6661 149.787306,150.92021 164.13427,156.497905 C174.264408,160.437894 179.084218,172.657397 179.20617,175.463387 C179.883681,190.995224 171.111274,181.207226 172.294207,192 C175.909404,192 189.959618,192 189.959618,192 C189.959618,192 193.223864,170.418408 191.494857,162.384153 C189.767205,154.349899 184.00701,142.822662 189.191321,130.789082 C194.375631,118.754183 181.317293,102 181.317293,102 L162.884941,105.487708 C162.884941,105.487708 149.444486,120.062238 147.332008,124.732734 C145.220885,129.404548 142,136.6661 142,136.6661" id="Fill-80" fill="#1A1A1A"></path>
                    <path d="M187,83 C187,83 206.538805,83.1964362 217.179803,98.7607342 C227.819453,114.325032 245.761906,122.993109 256.596891,120.629326 C256.596891,120.629326 255.785917,122.40249 253.75983,123.289073 C253.75983,123.289073 265.514906,125.554637 272,122.697145 C272,122.697145 264.753776,142.596136 239.523337,141.41359 C239.523337,141.41359 240.435346,143.186754 241.498233,144 C241.498233,144 221.183479,143.377952 212.010856,127.820202 C202.081145,110.97514 191.137043,104.47441 191.137043,104.47441 L187,83" id="Fill-81" fill="#1A1A1A"></path>
                    <path d="M80.4821916,50.921007 C77.4212126,44.5632147 70.0707997,16.8566945 51.3568407,8.35149855 C32.6442362,-0.152378391 24.6789186,17.1363319 19.3059523,17.229984 C13.9316316,17.3236361 8.3649839,16.7630424 3.13558566,17.0426798 C3.13558566,17.0426798 1.16897435,16.6232237 0.304857261,19.146555 C-0.559259829,21.6698863 0.688156847,24.0995654 0.688156847,24.0995654 C0.688156847,24.0995654 -0.192213228,27.9775549 1.56717251,29.987778 C3.32791266,31.9966821 3.61504874,33.0242174 3.4714807,33.8657675 C3.32791266,34.7073176 0.688156847,37.5102862 8.17401132,40.2209217 C15.6585114,42.9315572 27.6545695,49.2392258 28.9493907,60.594876 C28.9493907,60.594876 14.2106412,110.185656 44.6985341,132.612043 C75.186427,155.039749 150.644978,132.126634 175.000077,148.602814 C181.62046,153.080968 208.352559,118.413853 212,108.881121 C212,108.881121 203.188173,82.1190367 175.000077,78.744922 C136.147314,74.0952918 88.7834043,68.1648697 80.4821916,50.921007" id="Fill-82" fill="#3D3C3B"></path>
                    <path d="M39.4340645,58.6551272 C32.879758,57.9109358 29.0509913,55.8539277 26.8608011,54 C28.255421,56.1932685 29.2298929,58.666919 29.5497474,61.4497758 C29.5497474,61.4497758 24.1027338,79.6968788 26.7035845,99 C26.1533264,91.5672567 30.5120215,82.8125255 48.0972422,78.2412508 C65.7963094,73.6411518 86,57.7812263 86,57.7812263 L70.379987,57.7301287 C70.379987,57.7301287 52.4206992,60.1304082 39.4340645,58.6551272" id="Fill-83" fill="#1A1A1A"></path>
                    <path d="M22.998,49.985 L22.99,49.995 C22.996,50.001 23.002,50.009 23.01,50.015 C23.008,50.011 22.998,49.985 22.998,49.985" id="Fill-84" fill="#CA8A34"></path>
                    <path d="M87,143.142695 C115.543354,143.954322 148.189306,139.547628 167,145 C166.162403,141.896942 165.114729,139.323644 165.114729,139.323644 C152.465388,139.323644 101.737912,135 101.737912,135 L87.6342968,137.161822 C87.6342968,137.161822 87.1341782,140.27243 87,143.142695" id="Fill-85" fill="#1A1A1A"></path>
                    <path d="M175,148.708442 C175,148.708442 185.005997,159.014651 194.957452,163.499223 C204.908906,167.982477 210.001901,179.657397 210.125987,182.464705 C210.807781,197.996542 201.978558,188.207226 203.168969,199 C206.807018,199 220.946046,199 220.946046,199 C220.946046,199 224.230926,177.419726 222.492353,169.384153 C220.75378,161.349899 214.955811,149.823981 220.172892,137.789082 C225.391338,125.754183 212.250455,109 212.250455,109 L193.701588,112.487708 C193.701588,112.487708 180.176174,127.062238 178.050343,131.734052 C175.924512,136.404548 175,148.708442 175,148.708442" id="Fill-86" fill="#3D3C3B"></path>
                    <path d="M54.9288605,130.663346 C54.9288605,130.663346 49.8234512,147.710259 64.1695974,163.499223 C71.3824722,171.43722 79.0554275,179.657397 79.1768564,182.464705 C79.8514612,197.996542 71.1166779,188.207226 72.294538,199 C75.8942293,199 89.8841842,199 89.8841842,199 C89.8841842,199 93.1344303,177.419726 91.4128388,169.384153 C89.6925965,161.349899 96.1404694,148.906233 101.302546,136.872652 C106.464622,124.837753 81.2789251,109 81.2789251,109 L62.9256261,112.487708 C62.9256261,112.487708 57.0403736,116.908987 54.9369558,121.580801 C52.8335379,126.251297 54.9288605,130.663346 54.9288605,130.663346" id="Fill-87" fill="#3D3C3B"></path>
                    <path d="M59.4076814,12.3344678 C65.9243558,19.9560863 72.8855361,19.2590742 75.5278761,23.8884825 C79.5229405,30.8859112 57.0575628,41.9080641 49.7794663,53.8274901 C46.3125955,59.5063176 37.8875644,43.1109301 40.4914903,35.58294 C43.0940443,28.05495 49.4364835,13.1914285 47.6543445,7.49569579 C47.6543445,7.49569579 52.8910069,4.71284924 59.4076814,12.3344678" id="Fill-88" fill="#1A1A1A"></path>
                    <path d="M3.63341252,18 C3.39505954,18.0104186 3.15670656,18.0195349 2.9196147,18.0325581 C2.9196147,18.0325581 1.08845845,17.6184186 0.283859488,20.1097674 C-0.520739471,22.6011163 0.6407584,25 0.6407584,25 C0.6407584,25 4.6170915,24.5402791 6.35114098,21.8093023 C8.76872124,18.0013023 3.65359055,18.0156279 3.63341252,18" id="Fill-89" fill="#040404"></path>
                    <path d="M3.35858673,34.3013988 C5.24843573,35.263394 9.3368783,37 14.207566,37 C17.1344091,37 20.3423066,36.3718659 23.5238986,34.5705991 C23.9780162,34.3132753 24.1344652,33.743204 23.8741783,33.2958564 C23.6138914,32.8471892 23.0337839,32.6941145 22.5796663,32.9501188 C13.307638,38.2008446 3.35720223,32.1675904 3.25751789,32.1055688 C3.1758321,32.0554236 3.0886083,32.0224334 3,32 C3.4942682,32.8458696 3.57180047,33.4370546 3.48180766,33.9556611 C3.4651936,34.0480338 3.41812044,34.1641594 3.35858673,34.3013988" id="Fill-90" fill="#040404"></path>
                    <path d="M33.3464509,14.5739762 C31.6604332,13.5050867 29.4124096,13.9729508 28.3142796,15.6128744 C28.1910327,15.7976207 28.0875053,15.9943636 28,16.1935057 C29.2571185,16.0111587 30.5857201,16.2654848 31.728219,16.991274 C32.8781126,17.7206621 33.6496383,18.8063467 33.9861023,20 C34.137696,19.841646 34.2806624,19.6700958 34.4088392,19.4793512 C35.5069692,17.838228 35.0312361,15.6428657 33.3464509,14.5739762" id="Fill-91" fill="#040404"></path>
                    <path d="M27.2385447,61.0840753 C27.2385447,61.0840753 62.3537482,62.3702773 82.0945122,49 C82.0945122,49 84.7815863,52.136414 86,57.0569146 C86,57.0569146 61.2720812,74.5178848 25,72.8932768 C25,72.8932768 26.8077923,66.4181833 27.2385447,61.0840753" id="Fill-92" fill="#FFF999"></path>
                    <path d="M32,73.0006698 C32,76.8667113 29.7621393,80 27.0007037,80 C24.2392681,80 22,76.8667113 22,73.0006698 C22,69.1346283 24.2392681,66 27.0007037,66 C29.7621393,66 32,69.1346283 32,73.0006698" id="Fill-93" fill="#FFF999"></path>
                    <path d="M166.867792,125 C166.867792,125 161.673558,135.412596 165.266096,143.876607 C169.43671,144.832905 173.084236,146.152956 176,148 C176,148 165.546675,140.85347 166.867792,125" id="Fill-94" fill="#1A1A1A"></path>
                    <path d="M53.40266,137 C53.3781548,136.648546 52.5327259,123.568962 60,114 C60,114 48.504346,122.235003 47,133.91269 C48.9876427,135.089866 51.1318463,136.108953 53.40266,137" id="Fill-95" fill="#1A1A1A"></path>
                    <path d="M180,21 C154.174481,30.8498358 139.641535,15.5340572 123.606162,35.3530725 C102.297402,61.6922336 83,55.3232566 83,55.3232566" id="Stroke-96" stroke="#FFF999" stroke-width="2"></path>
                    <path d="M196.154416,18.5102963 C196.154416,18.5102963 206.955363,-5.9109389 215.069635,1.34812642 C221.976869,7.52602588 208.127138,14.3181025 208.127138,14.3181025 C201.237534,17.4117355 191.787384,19.938024 181,22" id="Stroke-97" stroke="#F2F2F2" stroke-width="4" stroke-linecap="round"></path>
                </g>
            </g>
        </g>
    </g>
</svg>