<svg
  version="1.1"
  xmlns="http://www.w3.org/2000/svg"
  xmlns:xlink="http://www.w3.org/1999/xlink"
  preserveAspectRatio="xMidYMid meet"
  viewBox="0 0 456 399"
  width="456"
  height="399"
>
  <defs>
    <path
      d="M28.86 250.73s1.19 35.47 17.6 54.5c7.04 8.17 15.11 16.16 15.23 18.97.69 15.53-8.18 5.74-6.98 16.53h17.85s3.3-21.58 1.55-29.61c-1.74-8.04 4.8-20.48 10.04-32.52 5.24-12.03-20.32-27.87-20.32-27.87-1.25.24-7.46 1.4-18.63 3.49l-16.34-3.49"
      id="a"
    />
    <path
      d="M144.86 288.4s7.79 14.25 22.14 19.83c10.13 3.94 14.95 16.16 15.07 18.97.67 15.53-8.1 5.74-6.91 16.53h17.66s3.27-21.58 1.54-29.61c-1.73-8.04-7.49-19.56-2.31-31.6 5.19-12.03-7.87-28.79-7.87-28.79-1.84.35-16.59 3.14-18.43 3.49 0 0-13.44 14.58-15.56 19.25-2.11 4.67-5.33 11.93-5.33 11.93"
      id="b"
    />
    <path
      d="M189.86 234.73s19.54.2 30.18 15.76c10.64 15.57 28.58 24.24 39.42 21.87 0 0-.81 1.78-2.84 2.66 0 0 11.76 2.27 18.24-.59 0 0-7.25 19.9-32.48 18.72 0 0 .92 1.77 1.98 2.58 0 0-20.32-.62-29.49-16.18-9.93-16.84-20.87-23.34-20.87-23.34-.28-1.43-1.66-8.59-4.14-21.48"
      id="c"
    />
    <path
      d="M83.34 202.65c-3.06-6.35-10.41-34.06-29.12-42.56-18.71-8.51-26.68 8.78-32.05 8.87-5.38.1-10.94-.46-16.17-.18 0 0-1.97-.42-2.83 2.1-.87 2.52.38 4.95.38 4.95s-.88 3.88.88 5.89 2.05 3.04 1.9 3.88c-.14.84-2.78 3.64 4.71 6.35 7.48 2.72 19.48 9.02 20.77 20.38 0 0-14.74 49.59 15.75 72.02 30.49 22.42 105.95-.49 130.3 15.99 6.62 4.47 33.35-30.19 37-39.73 0 0-8.81-26.76-37-30.13-38.85-4.65-86.22-10.58-94.52-27.83"
      id="d"
    />
    <path
      d="M42.3 210.39c-6.56-.75-10.39-2.8-12.58-4.66 1.4 2.2 2.37 4.67 2.69 7.45 0 0-5.45 18.25-2.85 37.55-.55-7.43 3.81-16.18 21.4-20.76 17.7-4.6 37.9-20.46 37.9-20.46-1.56 0-14.06-.04-15.62-.05 0 0-17.96 2.4-30.94.93"
      id="e"
    />
    <path
      d="M25.86 201.72c-.01 0-.01.01-.01.01.01 0 .01.01.02.02 0-.01-.01-.03-.01-.03"
      id="f"
    />
    <path
      d="M89.86 294.88c28.54.81 61.19-3.6 80 1.85-.84-3.1-1.88-5.67-1.88-5.67-12.65 0-63.38-4.33-63.38-4.33-1.41.22-12.69 1.95-14.1 2.17 0 0-.5 3.11-.64 5.98"
      id="g"
    />
    <path
      d="M177.86 300.44s10.01 10.31 19.96 14.79c9.95 4.49 15.04 16.16 15.17 18.97.68 15.53-8.15 5.74-6.96 16.53h17.78s3.28-21.58 1.54-29.61c-1.74-8.04-7.53-19.56-2.32-31.6 5.22-12.03-7.92-28.79-7.92-28.79-1.85.35-16.69 3.14-18.55 3.49 0 0-13.52 14.58-15.65 19.25-2.12 4.67-3.05 16.97-3.05 16.97"
      id="h"
    />
    <path
      d="M57.79 282.4s-5.11 17.04 9.24 32.83c7.21 7.94 14.89 16.16 15.01 18.97.67 15.53-8.06 5.74-6.88 16.53h17.59s3.25-21.58 1.52-29.61c-1.72-8.04 4.73-20.48 9.89-32.51 5.17-12.04-20.02-27.88-20.02-27.88-1.84.35-16.52 3.14-18.35 3.49 0 0-5.89 4.42-7.99 9.09-2.11 4.67-.01 9.09-.01 9.09"
      id="i"
    />
    <path
      d="M62.27 164.07c6.52 7.62 13.48 6.92 16.12 11.55 3.99 7-18.47 18.02-25.75 29.94-3.47 5.68-11.89-10.72-9.29-18.24 2.61-7.53 8.95-22.4 7.17-28.09 0 0 5.23-2.78 11.75 4.84"
      id="j"
    />
    <path
      d="M6.49 169.73c-.23.01-.47.02-.71.04 0 0-1.83-.42-2.63 2.07-.81 2.49.35 4.89.35 4.89s3.98-.46 5.71-3.19c2.42-3.81-2.7-3.79-2.72-3.81"
      id="k"
    />
    <path
      d="M6.22 186.03c1.89.97 5.98 2.7 10.85 2.7 2.93 0 6.13-.62 9.32-2.43.45-.25.61-.82.35-1.27a.969.969 0 00-1.3-.35c-9.27 5.25-19.22-.78-19.32-.84-.08-.05-.17-.08-.26-.11.5.85.57 1.44.48 1.96-.01.09-.06.21-.12.34"
      id="l"
    />
    <path
      d="M36.21 166.31c-1.69-1.07-3.94-.6-5.03 1.04-.13.18-.23.38-.32.58 1.26-.19 2.59.07 3.73.79 1.15.73 1.92 1.82 2.26 3.01.15-.15.29-.33.42-.52 1.1-1.64.62-3.83-1.06-4.9"
      id="m"
    />
    <path
      d="M30.1 212.82s35.11 1.28 54.86-12.09c0 0 2.68 3.14 3.9 8.06 0 0-24.73 17.46-61 15.84 0 0 1.81-6.48 2.24-11.81"
      id="n"
    />
    <path
      d="M34.86 224.73c0 3.87-2.24 7-5 7s-5-3.13-5-7c0-3.86 2.24-7 5-7s5 3.14 5 7"
      id="o"
    />
    <path
      d="M169.73 276.73s-5.2 10.42-1.6 18.88c4.17.96 7.82 2.28 10.73 4.12 0 0-10.45-7.14-9.13-23"
      id="p"
    />
    <path
      d="M56.76 288.23c-.02-.35-.87-13.43 6.6-23 0 0-11.49 8.24-13 19.92 1.99 1.17 4.13 2.19 6.4 3.08"
      id="q"
    />
    <path
      d="M182.86 172.73c-25.82 9.85-40.36-5.46-56.39 14.36-21.31 26.34-40.61 19.97-40.61 19.97"
      id="r"
    />
    <path
      d="M199.02 170.24s10.8-24.42 18.91-17.16c6.91 6.18-6.94 12.97-6.94 12.97-6.89 3.1-16.34 5.62-27.13 7.68"
      id="s"
    />
    <path
      d="M318.61 58.92c-3.63-18.62-29.43-11.26-33.38-1.15-3.96 10.11-.39 34.09 6.43 34.98 2.72.35 8.13-2 13.43-6.13-.03 1.72-.19 10.28-.49 25.69l21.2-2.6-11.45-32.92c3.68-7.6 5.1-13.56 4.26-17.87z"
      id="t"
    />
    <path
      d="M307.57 43.15c.89-.11 1.87-.02 2.3-.9.35-.71.05-1.81.09-2.6.04-.91.14-1.82.24-2.72.31-2.58.94-5.08 1.95-7.47 1.9-4.49 5.04-8.21 9.28-10.67 4.68-2.72 10.21-3.89 15.57-4.11 5.74-.24 11.12.99 16.7 2.09 5.32 1.04 10.76 1.04 16.01-.43 5.29-1.48 9-4.89 13.21-8.2 4.31-3.4 9.4-5.9 14.95-6.15 5.19-.23 10.18 1.3 14.77 3.59 4.3 2.15 7.97 4.92 10.37 9.15 2.58 4.56 3.22 9.83.47 14.47-3.99 6.73-12.61 9.4-19.96 10.15-4.25.43-8.51.17-12.68-.74-5.57-1.21-10.57-3.81-15.88-5.77-2.49-.91-5.04-1.6-7.67-2.01-2.55-.38-5.01-.4-7.06 1.35-2.17 1.86-4.1 3.65-6.68 4.97-2.47 1.25-5.15 2.12-7.91 2.43-5.38.62-10.87-.39-16.23-.87-4.36-.38-9.02-.73-13.25.68-1.77.58-4.32 1.66-4.74 3.61 11.24.63 17.22 13.63 15.34 23.93-1.01 5.57-10.3 13.07-14.56 10.73-2.7-1.48-1.48-4.01-.7-5.67 1.5-3.19 1.67-7.08-2.03-8.72-3.19-1.41-5.8 3.2-5.86 3.2-.83.04-8.38-3.07-13.97-8.27-4.76.87-5.88-2.19-5.05-4.9.83-2.72 7.59-6.84 11.37-7.94 2.74-.8 10.22-2.04 11.61-2.21z"
      id="u"
    />
    <path
      d="M312.72 280.62c-15.49 0-29.88-4.58-43.16-13.75 20.89-6.11 38.1-9.16 51.62-9.16 13.52 0 29.12 4.66 46.81 13.98-21.35 5.95-39.78 8.93-55.27 8.93z"
      id="v"
    />
    <path
      d="M294.76 288.19c2.85-7.52 48.56-88.67 53.12-103.5h-51.47c-3.46 11.28-19.04 82.06-21.24 96.19-6.92 22.27-21.16 94.42-22.98 99.42-1.92 5.26 8.85 10.74 11.72 4.27 4.56-10.28 15.44-38.74 20.28-56.12 4.54-16.29 8.24-30.95 10.05-39.25.21-.31.38-.64.52-1.01z"
      id="w"
    />
    <path
      d="M294.76 288.19c2.85-7.52 48.56-88.67 53.12-103.5h-51.47c-3.46 11.28-19.04 82.06-21.24 96.19-6.92 22.27-21.16 94.42-22.98 99.42-1.92 5.26 8.85 10.74 11.72 4.27 4.56-10.28 15.44-38.74 20.28-56.12 4.54-16.29 8.24-30.95 10.05-39.25.21-.31.38-.64.52-1.01z"
      id="x"
    />
    <path
      d="M438.93 315.38c5.4 1.54 10.13-9.55 3.46-11.95-10.61-3.82-39.86-12.65-57.59-16.25-14.26-2.9-27.27-5.27-36.01-6.65.74-24.46 4.12-83.17 1.91-95.84h-45.54c2.13 12.15 20.1 100.87 23.45 109.75 1.06 3.17 4.22 4.57 7.74 4.67 64.89 9.85 99.09 15.28 102.58 16.27z"
      id="y"
    />
    <path
      d="M447.63 299.89c1.55.27 3.77.93 6.66 1.98-.32 1.83-3.21 18.22-8.67 49.17-4.4.54-6.52-.59-6.37-3.4.15-2.81.25-5.15.31-7.02-.6-2.45-5.42-22.07-6.02-24.52-.13-.54.2-1.08.74-1.21 0-.01.01-.01.02-.01l3.66-.82c1.63-2.34 2.58-4.31 2.86-5.9.22-1.26.04-3.07-.55-5.43-.27-1.07.38-2.15 1.46-2.42l.12-.03c2.61-.48 4.54-.61 5.78-.39z"
      id="z"
    />
    <path
      d="M268.67 389.3c0 1.58-.26 3.88-.79 6.9h-49.93c-1.3-4.23-.55-6.52 2.24-6.86 2.8-.34 5.12-.65 6.97-.92 2.31-1.02 20.79-9.16 23.1-10.18a1.006 1.006 0 011.33.53c.15.35 1.3 3.12 1.45 3.47 2.58 1.19 4.69 1.79 6.31 1.79 1.27 0 3.02-.5 5.24-1.48 1.01-.45 2.19 0 2.64 1.01.02.04.03.07.05.11.93 2.5 1.39 4.37 1.39 5.63z"
      id="A"
    />
    <path
      d="M293.59 184.69c-6.23 28.33-21.37 39.57-24.03 83 30.26 14.99 67.64-10.68 98.79 3.93 8.9-20.44-3.56-69.67-17.8-86.93-20.07-5.73-39.05-5.73-56.96 0z"
      id="B"
    />
    <path
      d="M225.99 156.18c-7.45-3.02-14.2-4.85-20.23-5.5-1.66.16-4.21 1.08.1 3.85 4.31 2.76 8.72 5.87 8.24 7.69-.49 1.82-4.2 1.62-4.48 4.36-.18 1.83 5.76 1.4 17.82-1.3 1.98.51 11.87 3.08 29.69 7.71l4.35-16.35c-21.29-.28-33.12-.43-35.49-.46zm126.77-2.5c27.07 45 41.2 68.57 42.38 70.7 2.67 4.8-.71 13.03-2.06 17.39 6.36 1.95 4.5-7.93 12.54-5.34 7.33 2.37 13.33 7.55 20.74 1.64.91-.73 1.71-3.15-1.11-4.61-7.05-3.65-17.38-10.28-18.96-12.68-2.16-3.28-13.55-26.47-34.18-69.55-3.87.49-17.41 2.2-19.35 2.45z"
      id="C"
    />
    <path
      d="M296.54 99.41c.4 34.12-17.32 57.88-63.72 56.27-.08 4.41-.66 39.68-.73 44.08 43.22.26 78.45-21.3 80.45-68.2.52-12.15.56-24.72-.97-35.01-3 .57-13.53 2.58-15.03 2.86z"
      id="D"
    />
    <path
      d="M296.19 99.3c4.84 39.36-4.66 66.02-7.56 95.76 6.2-.76 55.81-6.85 62.02-7.62 2.1 9.9 3.9 20.11 5.47 30.64 4.65-.57 41.8-5.14 46.44-5.71-17.38-54.51-44.89-94.95-82.53-121.33-.1.01-.61.07-1.51.18l-.01.02c-13.39 4.83-20.83 7.52-22.32 8.06z"
      id="E"
    />
    <path
      d="M338.04 188.99c1.26-.15 11.35-1.39 12.61-1.55-4.17-19.59-9.52-37.94-16.68-54.95 4.61 24.33 5.97 43.17 4.07 56.5z"
      id="F"
    />
  </defs>
  <g>
    <use xlink:href="#a" fill="#1a1a1a" />
    <use xlink:href="#a" fill-opacity="0" stroke="#000" stroke-opacity="0" />
    <use xlink:href="#b" fill="#1a1a1a" />
    <use xlink:href="#b" fill-opacity="0" stroke="#000" stroke-opacity="0" />
    <use xlink:href="#c" fill="#1a1a1a" />
    <use xlink:href="#c" fill-opacity="0" stroke="#000" stroke-opacity="0" />
    <use xlink:href="#d" fill="#3d3c3b" />
    <use xlink:href="#d" fill-opacity="0" stroke="#000" stroke-opacity="0" />
    <use xlink:href="#e" fill="#1a1a1a" />
    <use xlink:href="#e" fill-opacity="0" stroke="#000" stroke-opacity="0" />
    <use xlink:href="#f" fill="#ca8a34" />
    <use xlink:href="#f" fill-opacity="0" stroke="#000" stroke-opacity="0" />
    <use xlink:href="#g" fill="#1a1a1a" />
    <use xlink:href="#g" fill-opacity="0" stroke="#000" stroke-opacity="0" />
    <use xlink:href="#h" fill="#3d3c3b" />
    <use xlink:href="#h" fill-opacity="0" stroke="#000" stroke-opacity="0" />
    <use xlink:href="#i" fill="#3d3c3b" />
    <use xlink:href="#i" fill-opacity="0" stroke="#000" stroke-opacity="0" />
    <use xlink:href="#j" fill="#1a1a1a" />
    <use xlink:href="#j" fill-opacity="0" stroke="#000" stroke-opacity="0" />
    <g>
      <use xlink:href="#k" fill="#040404" />
      <use xlink:href="#k" fill-opacity="0" stroke="#000" stroke-opacity="0" />
    </g>
    <g>
      <use xlink:href="#l" fill="#040404" />
      <use xlink:href="#l" fill-opacity="0" stroke="#000" stroke-opacity="0" />
    </g>
    <g>
      <use xlink:href="#m" fill="#040404" />
      <use xlink:href="#m" fill-opacity="0" stroke="#000" stroke-opacity="0" />
    </g>
    <g>
      <use xlink:href="#n" fill="#fff999" />
      <use xlink:href="#n" fill-opacity="0" stroke="#000" stroke-opacity="0" />
    </g>
    <g>
      <use xlink:href="#o" fill="#fff999" />
      <use xlink:href="#o" fill-opacity="0" stroke="#000" stroke-opacity="0" />
    </g>
    <g>
      <use xlink:href="#p" fill="#1a1a1a" />
      <use xlink:href="#p" fill-opacity="0" stroke="#000" stroke-opacity="0" />
    </g>
    <g>
      <use xlink:href="#q" fill="#1a1a1a" />
      <use xlink:href="#q" fill-opacity="0" stroke="#000" stroke-opacity="0" />
    </g>
    <g>
      <use xlink:href="#r" fill-opacity="0" />
      <use xlink:href="#r" fill-opacity="0" stroke="#fff999" stroke-width="2" />
    </g>
    <g>
      <use xlink:href="#s" fill-opacity="0" />
      <use xlink:href="#s" fill-opacity="0" stroke="#f2f2f2" stroke-width="4" />
    </g>
  </g>
</svg>
