<?xml version="1.0" encoding="UTF-8"?>
<svg width="272px" height="193px" viewBox="0 0 272 193" version="1.1" xmlns="http://www.w3.org/2000/svg" xmlns:xlink="http://www.w3.org/1999/xlink">
    <!-- Generator: Sketch 56.3 (81716) - https://sketch.com -->
    <title>Group</title>
    <desc>Created with Sketch.</desc>
    <g id="Sarah-&amp;-Lucy" stroke="none" stroke-width="1" fill="none" fill-rule="evenodd">
        <g id="Web—Features-Copy" transform="translate(-464.000000, -4028.000000)">
            <g id="Group" transform="translate(464.000000, 4028.000000)">
                <path d="M26,93 C26,93 27.1915495,128.465174 43.5965842,147.497905 C50.6390527,155.666657 58.7087191,163.656079 58.8319829,166.463387 C59.5167814,181.995224 50.6500095,172.205907 51.8456678,183 C55.4983834,183 69.6997362,183 69.6997362,183 C69.6997362,183 72.9990958,161.418408 71.2528594,153.382835 C69.506623,145.34858 76.0519278,132.906233 81.2920065,120.871334 C86.5320852,108.836434 60.9658152,93 60.9658152,93 L42.3351852,96.4863891 L26,93" id="Fill-79" fill="#1A1A1A"></path>
                <path d="M142,130.6661 C142,130.6661 149.787306,144.92021 164.13427,150.497905 C174.264408,154.437894 179.084218,166.657397 179.20617,169.463387 C179.883681,184.995224 171.111274,175.207226 172.294207,186 C175.909404,186 189.959618,186 189.959618,186 C189.959618,186 193.223864,164.418408 191.494857,156.384153 C189.767205,148.349899 184.00701,136.822662 189.191321,124.789082 C194.375631,112.754183 181.317293,96 181.317293,96 L162.884941,99.4877077 C162.884941,99.4877077 149.444486,114.062238 147.332008,118.732734 C145.220885,123.404548 142,130.6661 142,130.6661" id="Fill-80" fill="#1A1A1A"></path>
                <path class="tail" d="M187,77 C187,77 206.538805,77.1964362 217.179803,92.7607342 C227.819453,108.325032 245.761906,116.993109 256.596891,114.629326 C256.596891,114.629326 255.785917,116.40249 253.75983,117.289073 C253.75983,117.289073 265.514906,119.554637 272,116.697145 C272,116.697145 264.753776,136.596136 239.523337,135.41359 C239.523337,135.41359 240.435346,137.186754 241.498233,138 C241.498233,138 221.183479,137.377952 212.010856,121.820202 C202.081145,104.97514 191.137043,98.4744096 191.137043,98.4744096 L187,77" id="Fill-81" fill="#1A1A1A"></path>
                <path d="M80.4821916,44.921007 C77.4212126,38.5632147 70.0707997,10.8566945 51.3568407,2.35149855 C32.6442362,-6.15237839 24.6789186,11.1363319 19.3059523,11.229984 C13.9316316,11.3236361 8.3649839,10.7630424 3.13558566,11.0426798 C3.13558566,11.0426798 1.16897435,10.6232237 0.304857261,13.146555 C-0.559259829,15.6698863 0.688156847,18.0995654 0.688156847,18.0995654 C0.688156847,18.0995654 -0.192213228,21.9775549 1.56717251,23.987778 C3.32791266,25.9966821 3.61504874,27.0242174 3.4714807,27.8657675 C3.32791266,28.7073176 0.688156847,31.5102862 8.17401132,34.2209217 C15.6585114,36.9315572 27.6545695,43.2392258 28.9493907,54.594876 C28.9493907,54.594876 14.2106412,104.185656 44.6985341,126.612043 C75.186427,149.039749 150.644978,126.126634 175.000077,142.602814 C181.62046,147.080968 208.352559,112.413853 212,102.881121 C212,102.881121 203.188173,76.1190367 175.000077,72.744922 C136.147314,68.0952918 88.7834043,62.1648697 80.4821916,44.921007" id="Fill-82" fill="#3D3C3B"></path>
                <path d="M39.4340645,52.6551272 C32.879758,51.9109358 29.0509913,49.8539277 26.8608011,48 C28.255421,50.1932685 29.2298929,52.666919 29.5497474,55.4497758 C29.5497474,55.4497758 24.1027338,73.6968788 26.7035845,93 C26.1533264,85.5672567 30.5120215,76.8125255 48.0972422,72.2412508 C65.7963094,67.6411518 86,51.7812263 86,51.7812263 L70.379987,51.7301287 C70.379987,51.7301287 52.4206992,54.1304082 39.4340645,52.6551272" id="Fill-83" fill="#1A1A1A"></path>
                <path d="M22.998,43.985 L22.99,43.995 C22.996,44.001 23.002,44.009 23.01,44.015 C23.008,44.011 22.998,43.985 22.998,43.985" id="Fill-84" fill="#CA8A34"></path>
                <path d="M87,137.142695 C115.543354,137.954322 148.189306,133.547628 167,139 C166.162403,135.896942 165.114729,133.323644 165.114729,133.323644 C152.465388,133.323644 101.737912,129 101.737912,129 L87.6342968,131.161822 C87.6342968,131.161822 87.1341782,134.27243 87,137.142695" id="Fill-85" fill="#1A1A1A"></path>
                <path d="M175,142.708442 C175,142.708442 185.005997,153.014651 194.957452,157.499223 C204.908906,161.982477 210.001901,173.657397 210.125987,176.464705 C210.807781,191.996542 201.978558,182.207226 203.168969,193 C206.807018,193 220.946046,193 220.946046,193 C220.946046,193 224.230926,171.419726 222.492353,163.384153 C220.75378,155.349899 214.955811,143.823981 220.172892,131.789082 C225.391338,119.754183 212.250455,103 212.250455,103 L193.701588,106.487708 C193.701588,106.487708 180.176174,121.062238 178.050343,125.734052 C175.924512,130.404548 175,142.708442 175,142.708442" id="Fill-86" fill="#3D3C3B"></path>
                <path d="M54.9288605,124.663346 C54.9288605,124.663346 49.8234512,141.710259 64.1695974,157.499223 C71.3824722,165.43722 79.0554275,173.657397 79.1768564,176.464705 C79.8514612,191.996542 71.1166779,182.207226 72.294538,193 C75.8942293,193 89.8841842,193 89.8841842,193 C89.8841842,193 93.1344303,171.419726 91.4128388,163.384153 C89.6925965,155.349899 96.1404694,142.906233 101.302546,130.872652 C106.464622,118.837753 81.2789251,103 81.2789251,103 L62.9256261,106.487708 C62.9256261,106.487708 57.0403736,110.908987 54.9369558,115.580801 C52.8335379,120.251297 54.9288605,124.663346 54.9288605,124.663346" id="Fill-87" fill="#3D3C3B"></path>
                <path d="M59.4076814,6.33446776 C65.9243558,13.9560863 72.8855361,13.2590742 75.5278761,17.8884825 C79.5229405,24.8859112 57.0575628,35.9080641 49.7794663,47.8274901 C46.3125955,53.5063176 37.8875644,37.1109301 40.4914903,29.58294 C43.0940443,22.05495 49.4364835,7.19142845 47.6543445,1.49569579 C47.6543445,1.49569579 52.8910069,-1.28715076 59.4076814,6.33446776" id="Fill-88" fill="#1A1A1A"></path>
                <path d="M3.63341252,12 C3.39505954,12.0104186 3.15670656,12.0195349 2.9196147,12.0325581 C2.9196147,12.0325581 1.08845845,11.6184186 0.283859488,14.1097674 C-0.520739471,16.6011163 0.6407584,19 0.6407584,19 C0.6407584,19 4.6170915,18.5402791 6.35114098,15.8093023 C8.76872124,12.0013023 3.65359055,12.0156279 3.63341252,12" id="Fill-89" fill="#040404"></path>
                <path d="M3.35858673,28.3013988 C5.24843573,29.263394 9.3368783,31 14.207566,31 C17.1344091,31 20.3423066,30.3718659 23.5238986,28.5705991 C23.9780162,28.3132753 24.1344652,27.743204 23.8741783,27.2958564 C23.6138914,26.8471892 23.0337839,26.6941145 22.5796663,26.9501188 C13.307638,32.2008446 3.35720223,26.1675904 3.25751789,26.1055688 C3.1758321,26.0554236 3.0886083,26.0224334 3,26 C3.4942682,26.8458696 3.57180047,27.4370546 3.48180766,27.9556611 C3.4651936,28.0480338 3.41812044,28.1641594 3.35858673,28.3013988" id="Fill-90" fill="#040404"></path>
                <path d="M33.3464509,8.57397617 C31.6604332,7.50508666 29.4124096,7.97295075 28.3142796,9.61287438 C28.1910327,9.79762072 28.0875053,9.99436357 28,10.1935057 C29.2571185,10.0111587 30.5857201,10.2654848 31.728219,10.991274 C32.8781126,11.7206621 33.6496383,12.8063467 33.9861023,14 C34.137696,13.841646 34.2806624,13.6700958 34.4088392,13.4793512 C35.5069692,11.838228 35.0312361,9.64286567 33.3464509,8.57397617" id="Fill-91" fill="#040404"></path>
                <path d="M27.2385447,55.0840753 C27.2385447,55.0840753 62.3537482,56.3702773 82.0945122,43 C82.0945122,43 84.7815863,46.136414 86,51.0569146 C86,51.0569146 61.2720812,68.5178848 25,66.8932768 C25,66.8932768 26.8077923,60.4181833 27.2385447,55.0840753" id="Fill-92" fill="#FFF999"></path>
                <path d="M32,67.0006698 C32,70.8667113 29.7621393,74 27.0007037,74 C24.2392681,74 22,70.8667113 22,67.0006698 C22,63.1346283 24.2392681,60 27.0007037,60 C29.7621393,60 32,63.1346283 32,67.0006698" id="Fill-93" fill="#FFF999"></path>
                <path d="M166.867792,119 C166.867792,119 161.673558,129.412596 165.266096,137.876607 C169.43671,138.832905 173.084236,140.152956 176,142 C176,142 165.546675,134.85347 166.867792,119" id="Fill-94" fill="#1A1A1A"></path>
                <path d="M53.40266,131 C53.3781548,130.648546 52.5327259,117.568962 60,108 C60,108 48.504346,116.235003 47,127.91269 C48.9876427,129.089866 51.1318463,130.108953 53.40266,131" id="Fill-95" fill="#1A1A1A"></path>
            </g>
        </g>
    </g>
</svg>