<?xml version="1.0" encoding="UTF-8"?>
<svg width="251px" height="395px" viewBox="0 0 251 395" version="1.1" xmlns="http://www.w3.org/2000/svg" xmlns:xlink="http://www.w3.org/1999/xlink">
    <!-- Generator: Sketch 56.3 (81716) - https://sketch.com -->
    <title>Humaaan</title>
    <desc>Created with Sketch.</desc>
    <g id="Sarah-&amp;-Lucy" stroke="none" stroke-width="1" fill="none" fill-rule="evenodd">
        <g id="Web—Features-Copy" transform="translate(-755.000000, -384.000000)">
            <g id="Group-2" transform="translate(176.000000, 377.000000)">
                <g id="Image">
                    <g id="Group-3" transform="translate(415.000000, 201.500000) scale(-1, 1) translate(-415.000000, -201.500000) ">
                        <g id="Humaaan" transform="translate(0.000000, 17.000000)">
                            <g id="Head/Front/Airy" transform="translate(146.854992, 53.957671) rotate(7.000000) translate(-146.854992, -53.957671) translate(86.334992, 7.816826)">
                                <g id="Head" stroke-width="1" transform="translate(48.044118, 27.423077)" fill="#FFD3A1">
                                    <path d="M7.35099367,30.5104968 C3.25130946,25.7258325 0.476557427,19.8621605 0.940220121,13.2917477 C2.27616145,-5.63944128 28.780678,-1.47482091 33.9363552,8.08001758 C39.0920324,17.6348561 38.4794039,41.8714963 31.8161505,43.5792125 C29.1588542,44.2602473 23.4980231,42.5919847 17.7366177,39.1391938 L21.3529412,64.5769231 L0,64.5769231 L7.35099367,30.5104968 Z" id="Head-[skin]"></path>
                                </g>
                                <path d="M69.8098379,24.4908041 C66.9955821,24.0319373 59.4180741,23.7164537 58.0206463,23.7166573 C57.127624,23.7166573 56.1598598,23.9195119 55.6309488,23.104224 C55.1978136,22.4365963 55.3564869,21.3074541 55.2272202,20.5326964 C55.0771238,19.6326821 54.8639257,18.744277 54.6482771,17.8581122 C54.0346178,15.3364836 53.106675,12.9374639 51.8082904,10.6850859 C49.3720324,6.45935696 45.8030062,3.14932479 41.2972562,1.22322498 C36.3216127,-0.903489023 30.6912631,-1.39046213 25.3392555,-0.95909072 C19.6119049,-0.497576266 14.4273517,1.38229064 9.01979822,3.15136149 C3.86669382,4.83713162 -1.53064902,5.50068594 -6.92023178,4.67745495 C-12.3504529,3.84811389 -16.4534953,0.921794531 -21.033783,-1.85564263 C-25.7227118,-4.69906861 -31.0812543,-6.55877227 -36.624405,-6.13127057 C-41.7987475,-5.7320789 -46.5677278,-3.60780893 -50.8463932,-0.770085683 C-54.8495756,1.88494627 -58.1527168,5.07929433 -60.0175875,9.5750887 C-62.0237736,14.4112143 -62.0219356,19.7196489 -58.7228787,23.9936475 C-53.9410331,30.1888578 -45.0637009,31.7909199 -37.6781428,31.6316506 C-33.4062164,31.5397958 -29.2106655,30.764427 -25.1774638,29.3540177 C-19.7987043,27.4729288 -15.150618,24.2846908 -10.1186118,21.697888 C-7.75709561,20.4840195 -5.31614067,19.4870586 -2.75755919,18.768921 C-0.274740642,18.0717612 2.17070698,17.7520006 4.41868087,19.2432666 C6.79673828,20.8208884 8.92769827,22.3706075 11.6482205,23.3581995 C14.2580593,24.3056687 17.0224873,24.835616 19.803048,24.8142308 C25.213052,24.7726823 30.5460679,23.0966882 35.8004618,21.9740635 C40.0852536,21.058774 44.6698297,20.1465396 49.0381445,21.0263906 C50.8609475,21.3936062 53.5234733,22.1516631 54.1818552,24.035196 C43.1010674,26.031969 38.7490998,39.6574399 41.8729421,49.659839 C43.5589226,55.058499 53.6935825,61.3694755 57.6340716,58.5313184 C60.1304848,56.7332642 58.6149054,54.3727447 57.6340716,52.8144715 C55.7557228,49.8303101 55.1130653,45.9970517 58.5887662,43.919422 C61.5868135,42.1275402 64.7390537,46.3827839 64.7986838,46.3780995 C65.6226822,46.3135364 72.7427446,42.3098673 77.648338,36.4674987 C82.4877242,36.7527311 83.2219291,33.5800217 82.0663784,30.9853417 C80.9108278,28.3906617 73.6982528,25.1252337 69.8098379,24.4908041 Z" id="hair" fill="#3D2216"></path>
                            </g>
                            <g id="Bottom/Standing/Skirt" transform="translate(0.000000, 172.929577)">
                                <path d="M86.6929644,87.0069946 C108.043484,92.9588283 126.464067,95.9347451 141.954714,95.9347451 C157.44536,95.9347451 171.833789,91.3518859 185.12,82.1861674 C164.226574,76.0771519 147.019908,73.0226442 133.5,73.0226442 C119.980092,73.0226442 104.377747,77.6840943 86.6929644,87.0069946 Z" id="Skirt-Shadow" fill="#002C5C"></path>
                                <path d="M160.437484,104.513629 C160.231614,104.205172 160.057756,103.869632 159.919856,103.506163 C157.065987,95.9840984 111.354028,14.8360382 106.8,0 L158.265218,0 C161.727709,11.2800493 177.312046,82.0677365 179.505275,96.1909235 C186.425317,118.468721 200.672991,190.618376 202.491824,195.616683 C204.405205,200.874818 193.639244,206.352435 190.770369,199.88821 C186.205504,189.602538 175.328797,161.142266 170.48585,143.764622 C165.945598,127.473119 162.24862,112.816378 160.437484,104.513629 Z" id="Leg-[skin]" fill="#FFD3A1"></path>
                                <path d="M160.437484,104.513629 C160.231614,104.205172 160.057756,103.869632 159.919856,103.506163 C157.065987,95.9840984 111.354028,14.8360382 106.8,0 L158.265218,0 C161.727709,11.2800493 177.312046,82.0677365 179.505275,96.1909235 C186.425317,118.468721 200.672991,190.618376 202.491824,195.616683 C204.405205,200.874818 193.639244,206.352435 190.770369,199.88821 C186.205504,189.602538 175.328797,161.142266 170.48585,143.764622 C165.945598,127.473119 162.24862,112.816378 160.437484,104.513629 Z" id="Shadow" fill-opacity="0.1" fill="#000000"></path>
                                <path d="M118.331785,114.421097 C97.4330289,119.685508 20.9897856,129.202632 15.7439154,130.695369 C10.3475517,132.230929 5.61597326,121.144942 12.2861703,118.743529 C22.8995799,114.922476 52.1443275,106.09377 69.8755237,102.490949 C84.1374241,99.5930581 97.1515833,97.228383 105.888947,95.8436553 C105.148738,71.3822985 101.765053,12.6787935 103.982872,1.42108547e-14 L149.52,1.42108547e-14 C147.39326,12.1581105 129.415,100.870943 126.073484,109.750847 C125.01305,112.921032 121.848938,114.32202 118.331785,114.421097 L118.331785,114.421097 Z" id="Leg-[skin]" fill="#FFD3A1"></path>
                                <g id="Shoe/Flat-Sneaker-Shoe" transform="translate(21.805000, 139.263598) rotate(80.000000) translate(-21.805000, -139.263598) translate(-5.340000, 121.523013)" fill="#E4E4E4">
                                    <path d="M2.28004921,22.4680239 C1.35018034,24.9605595 0.885245902,26.8353722 0.885245902,28.092462 C0.885245902,29.6703374 1.15118635,31.9728501 1.68306723,35 C3.53494727,35 20.178105,35 51.6125403,35 C52.9100303,30.7601938 52.1610439,28.4712589 49.3655809,28.1331953 C46.5701179,27.7951316 44.2478793,27.4898872 42.3988652,27.217462 L19.2938401,17.0363435 C18.7884459,16.8136439 18.1982092,17.0428133 17.9755097,17.5482075 C17.9728332,17.5542814 17.9702173,17.5603818 17.9676624,17.5665078 L16.5215329,21.0338582 C13.9336653,22.2273206 11.8307543,22.8240519 10.2127997,22.8240519 C8.93655596,22.8240519 7.18822216,22.3294296 4.96779829,21.3401852 L4.96778998,21.3402038 C3.95883528,20.8906937 2.77651599,21.3442132 2.32700593,22.3531679 C2.31016951,22.3909584 2.29450973,22.4292621 2.28004921,22.4680239 Z" id="shoe"></path>
                                </g>
                                <g id="Shoe/Flat-Sneaker-Shoe" transform="translate(185.120000, 176.518828)" fill="#E4E4E4">
                                    <path d="M2.28004921,22.4680239 C1.35018034,24.9605595 0.885245902,26.8353722 0.885245902,28.092462 C0.885245902,29.6703374 1.15118635,31.9728501 1.68306723,35 C3.53494727,35 20.178105,35 51.6125403,35 C52.9100303,30.7601938 52.1610439,28.4712589 49.3655809,28.1331953 C46.5701179,27.7951316 44.2478793,27.4898872 42.3988652,27.217462 L19.2938401,17.0363435 C18.7884459,16.8136439 18.1982092,17.0428133 17.9755097,17.5482075 C17.9728332,17.5542814 17.9702173,17.5603818 17.9676624,17.5665078 L16.5215329,21.0338582 C13.9336653,22.2273206 11.8307543,22.8240519 10.2127997,22.8240519 C8.93655596,22.8240519 7.18822216,22.3294296 4.96779829,21.3401852 L4.96778998,21.3402038 C3.95883528,20.8906937 2.77651599,21.3442132 2.32700593,22.3531679 C2.31016951,22.3909584 2.29450973,22.4292621 2.28004921,22.4680239 Z" id="shoe"></path>
                                </g>
                                <path d="M104.13,3.55271368e-15 C124.196687,-5.72199449 143.183354,-5.72199449 161.09,3.55271368e-15 C167.32,28.3294697 182.457957,39.5734582 185.12,83.0072479 C154.86,97.9925419 117.48,72.3199034 86.33,86.9335813 C77.43,66.4926977 89.89,17.2655977 104.13,3.55271368e-15 Z" id="Skirt" fill="#446B8D"></path>
                            </g>
                            <g id="Body/Long-Sleeve" transform="translate(133.500000, 162.725352) rotate(7.000000) translate(-133.500000, -162.725352) translate(19.580000, 79.760563)">
                                <path d="M171,57.9764231 L206.164436,53.1956009 C213.19875,49.2958096 219.669978,46.6557191 225.578119,45.2753294 C227.240731,45.2269454 229.885628,45.8293631 225.945465,49.1033298 C222.005302,52.3772965 218.007451,55.9989873 218.709469,57.7462462 C219.411487,59.4935051 223.075788,58.8434078 223.682818,61.5308405 C224.087505,63.3224623 218.140566,63.613583 205.842003,62.4042025 L177.309075,73.6791444 L171,57.9764231 Z M60.5355959,66.0890238 L80.0379605,66.1619747 C58.6530884,114.127814 47.5026844,139.241967 46.5867484,141.504434 C44.5258925,146.594984 48.8869408,154.347805 50.7518981,158.514112 C44.6777942,161.223168 45.3249965,151.190429 37.6626778,154.743506 C30.6688686,157.986591 25.3486954,163.862843 17.2683595,158.893399 C16.2749297,158.282435 15.1862938,155.982052 17.8165776,154.184413 C24.3695772,149.705855 33.8128467,141.86757 35.0887811,139.287538 C36.8287456,135.769204 45.3110172,111.369699 60.5355959,66.0890238 Z" id="Arms-[skin]" fill="#FFD3A1"></path>
                                <path d="M109.982197,8.59650281 L125.282172,8.27569767 C131.984042,41.730132 154.256958,61.2830194 199.312837,50.0620138 L209.188805,93.0349061 C166.967786,102.271518 128.026941,88.5079309 116.315404,43.0431089 C113.283657,31.2737028 110.627417,18.9817017 109.982197,8.59650281 Z" id="Clothes-Back" fill="#9AD2CB" transform="translate(159.585501, 52.012941) rotate(5.000000) translate(-159.585501, -52.012941) "></path>
                                <path d="M106.421509,0.0141495503 L129.557085,5.2953792 C129.557085,44.9570828 142.232835,70.2619047 148.734375,99.4224599 L86.2513795,99.4224599 C85.3711973,109.498659 84.8306853,119.855165 84.5490266,130.491979 L37.7639568,130.491979 C48.365716,74.268545 70.7424428,30.7712188 104.894137,0 L106.40934,0 L106.421509,0.0141495503 Z" id="Clothes" fill="#C1DEE2"></path>
                                <path d="M96.1095288,42.8397614 C94.4992877,67.55448 95.4463166,86.4153795 98.9506153,99.4224599 L86.2513795,99.4224599 C87.9950178,79.4615388 91.0716403,60.6006425 96.1095261,42.8397709 Z" id="Shade" fill-opacity="0.1" fill="#000000"></path>
                            </g>
                        </g>
                    </g>
                </g>
            </g>
        </g>
    </g>
</svg>