<?xml version="1.0" encoding="UTF-8" standalone="no"?>
<!DOCTYPE svg PUBLIC "-//W3C//DTD SVG 1.1//EN" "http://www.w3.org/Graphics/SVG/1.1/DTD/svg11.dtd">
<svg
  version="1.1"
  xmlns="http://www.w3.org/2000/svg"
  xmlns:xlink="http://www.w3.org/1999/xlink"
  preserveAspectRatio="xMidYMid meet"
  viewBox="0 0 456 399"
  width="456"
  height="399"
>
  <defs>
    <path
      d="M28.86 250.73C28.86 250.73 30.05 286.2 46.46 305.23C53.5 313.4 61.57 321.39 61.69 324.2C62.38 339.73 53.51 329.94 54.71 340.73C58.36 340.73 72.56 340.73 72.56 340.73C72.56 340.73 75.86 319.15 74.11 311.12C72.37 303.08 78.91 290.64 84.15 278.6C89.39 266.57 63.83 250.73 63.83 250.73C62.58 250.97 56.37 252.13 45.2 254.22L28.86 250.73"
      id="a5BId6bkI3"
    ></path>
    <path
      d="M144.86 288.4C144.86 288.4 152.65 302.65 167 308.23C177.13 312.17 181.95 324.39 182.07 327.2C182.74 342.73 173.97 332.94 175.16 343.73C178.77 343.73 192.82 343.73 192.82 343.73C192.82 343.73 196.09 322.15 194.36 314.12C192.63 306.08 186.87 294.56 192.05 282.52C197.24 270.49 184.18 253.73 184.18 253.73C182.34 254.08 167.59 256.87 165.75 257.22C165.75 257.22 152.31 271.8 150.19 276.47C148.08 281.14 144.86 288.4 144.86 288.4"
      id="cUTjJZlDV"
    ></path>
    <path
      d="M189.86 234.73C189.86 234.73 209.4 234.93 220.04 250.49C230.68 266.06 248.62 274.73 259.46 272.36C259.46 272.36 258.65 274.14 256.62 275.02C256.62 275.02 268.38 277.29 274.86 274.43C274.86 274.43 267.61 294.33 242.38 293.15C242.38 293.15 243.3 294.92 244.36 295.73C244.36 295.73 224.04 295.11 214.87 279.55C204.94 262.71 194 256.21 194 256.21C193.72 254.78 192.34 247.62 189.86 234.73"
      id="d1d13aswr"
    ></path>
    <path
      d="M83.34 202.65C80.28 196.3 72.93 168.59 54.22 160.09C35.51 151.58 27.54 168.87 22.17 168.96C16.79 169.06 11.23 168.5 6 168.78C6 168.78 4.03 168.36 3.17 170.88C2.3 173.4 3.55 175.83 3.55 175.83C3.55 175.83 2.67 179.71 4.43 181.72C6.19 183.73 6.48 184.76 6.33 185.6C6.19 186.44 3.55 189.24 11.04 191.95C18.52 194.67 30.52 200.97 31.81 212.33C31.81 212.33 17.07 261.92 47.56 284.35C78.05 306.77 153.51 283.86 177.86 300.34C184.48 304.81 211.21 270.15 214.86 260.61C214.86 260.61 206.05 233.85 177.86 230.48C139.01 225.83 91.64 219.9 83.34 202.65"
      id="e1poZGWmyq"
    ></path>
    <path
      d="M42.3 210.39C35.74 209.64 31.91 207.59 29.72 205.73C31.12 207.93 32.09 210.4 32.41 213.18C32.41 213.18 26.96 231.43 29.56 250.73C29.01 243.3 33.37 234.55 50.96 229.97C68.66 225.37 88.86 209.51 88.86 209.51C87.3 209.51 74.8 209.47 73.24 209.46C73.24 209.46 55.28 211.86 42.3 210.39"
      id="b19dKUfXiP"
    ></path>
    <path
      d="M25.86 201.72C25.85 201.72 25.85 201.73 25.85 201.73C25.86 201.73 25.86 201.74 25.87 201.75C25.87 201.74 25.86 201.72 25.86 201.72"
      id="e2KwUGXp"
    ></path>
    <path
      d="M89.86 294.88C118.4 295.69 151.05 291.28 169.86 296.73C169.02 293.63 167.98 291.06 167.98 291.06C155.33 291.06 104.6 286.73 104.6 286.73C103.19 286.95 91.91 288.68 90.5 288.9C90.5 288.9 90 292.01 89.86 294.88"
      id="aebgrkhHD"
    ></path>
    <path
      d="M177.86 300.44C177.86 300.44 187.87 310.75 197.82 315.23C207.77 319.72 212.86 331.39 212.99 334.2C213.67 349.73 204.84 339.94 206.03 350.73C209.67 350.73 223.81 350.73 223.81 350.73C223.81 350.73 227.09 329.15 225.35 321.12C223.61 313.08 217.82 301.56 223.03 289.52C228.25 277.49 215.11 260.73 215.11 260.73C213.26 261.08 198.42 263.87 196.56 264.22C196.56 264.22 183.04 278.8 180.91 283.47C178.79 288.14 177.86 300.44 177.86 300.44"
      id="bSWyJLfmG"
    ></path>
    <path
      d="M57.79 282.4C57.79 282.4 52.68 299.44 67.03 315.23C74.24 323.17 81.92 331.39 82.04 334.2C82.71 349.73 73.98 339.94 75.16 350.73C78.76 350.73 92.75 350.73 92.75 350.73C92.75 350.73 96 329.15 94.27 321.12C92.55 313.08 99 300.64 104.16 288.61C109.33 276.57 84.14 260.73 84.14 260.73C82.3 261.08 67.62 263.87 65.79 264.22C65.79 264.22 59.9 268.64 57.8 273.31C55.69 277.98 57.79 282.4 57.79 282.4"
      id="a1JtUhUMSu"
    ></path>
    <path
      d="M62.27 164.07C68.79 171.69 75.75 170.99 78.39 175.62C82.38 182.62 59.92 193.64 52.64 205.56C49.17 211.24 40.75 194.84 43.35 187.32C45.96 179.79 52.3 164.92 50.52 159.23C50.52 159.23 55.75 156.45 62.27 164.07"
      id="bOR6p0YHy"
    ></path>
    <path
      d="M6.49 169.73C6.26 169.74 6.02 169.75 5.78 169.77C5.78 169.77 3.95 169.35 3.15 171.84C2.34 174.33 3.5 176.73 3.5 176.73C3.5 176.73 7.48 176.27 9.21 173.54C11.63 169.73 6.51 169.75 6.49 169.73"
      id="ak5P2T9ZU"
    ></path>
    <path
      d="M6.22 186.03C8.11 187 12.2 188.73 17.07 188.73C20 188.73 23.2 188.11 26.39 186.3C26.84 186.05 27 185.48 26.74 185.03C26.48 184.58 25.89 184.43 25.44 184.68C16.17 189.93 6.22 183.9 6.12 183.84C6.04 183.79 5.95 183.76 5.86 183.73C6.36 184.58 6.43 185.17 6.34 185.69C6.33 185.78 6.28 185.9 6.22 186.03"
      id="cgAPnRQIt"
    ></path>
    <path
      d="M36.21 166.31C34.52 165.24 32.27 165.71 31.18 167.35C31.05 167.53 30.95 167.73 30.86 167.93C32.12 167.74 33.45 168 34.59 168.72C35.74 169.45 36.51 170.54 36.85 171.73C37 171.58 37.14 171.4 37.27 171.21C38.37 169.57 37.89 167.38 36.21 166.31"
      id="aD43VVLsY"
    ></path>
    <path
      d="M30.1 212.82C30.1 212.82 65.21 214.1 84.96 200.73C84.96 200.73 87.64 203.87 88.86 208.79C88.86 208.79 64.13 226.25 27.86 224.63C27.86 224.63 29.67 218.15 30.1 212.82"
      id="a1Utvs8oZz"
    ></path>
    <path
      d="M34.86 224.73C34.86 228.6 32.62 231.73 29.86 231.73C27.1 231.73 24.86 228.6 24.86 224.73C24.86 220.87 27.1 217.73 29.86 217.73C32.62 217.73 34.86 220.87 34.86 224.73"
      id="b7QBzqAjc"
    ></path>
    <path
      d="M169.73 276.73C169.73 276.73 164.53 287.15 168.13 295.61C172.3 296.57 175.95 297.89 178.86 299.73C178.86 299.73 168.41 292.59 169.73 276.73"
      id="b2nPETa3k"
    ></path>
    <path
      d="M56.76 288.23C56.74 287.88 55.89 274.8 63.36 265.23C63.36 265.23 51.87 273.47 50.36 285.15C52.35 286.32 54.49 287.34 56.76 288.23"
      id="bdC3xw8Py"
    ></path>
    <path
      d="M182.86 172.73C157.04 182.58 142.5 167.27 126.47 187.09C105.16 213.43 85.86 207.06 85.86 207.06"
      id="d10ZeNe62t"
    ></path>
    <path
      d="M199.02 170.24C199.02 170.24 209.82 145.82 217.93 153.08C224.84 159.26 210.99 166.05 210.99 166.05C204.1 169.15 194.65 171.67 183.86 173.73"
      id="b40SzTOCD"
    ></path>
    <path
      d="M318.61 58.92C314.98 40.3 289.18 47.66 285.23 57.77C281.27 67.88 284.84 91.86 291.66 92.75C294.38 93.1 299.79 90.75 305.09 86.62C305.06 88.34 304.9 96.9 304.6 112.31L325.8 109.71L314.35 76.79C318.03 69.19 319.45 63.23 318.61 58.92Z"
      id="a1i0ZfjszH"
    ></path>
    <path
      d="M307.57 43.15C308.46 43.04 309.44 43.13 309.87 42.25C310.22 41.54 309.92 40.44 309.96 39.65C310 38.74 310.1 37.83 310.2 36.93C310.51 34.35 311.14 31.85 312.15 29.46C314.05 24.97 317.19 21.25 321.43 18.79C326.11 16.07 331.64 14.9 337 14.68C342.74 14.44 348.12 15.67 353.7 16.77C359.02 17.81 364.46 17.81 369.71 16.34C375 14.86 378.71 11.45 382.92 8.14C387.23 4.74 392.32 2.24 397.87 1.99C403.06 1.76 408.05 3.29 412.64 5.58C416.94 7.73 420.61 10.5 423.01 14.73C425.59 19.29 426.23 24.56 423.48 29.2C419.49 35.93 410.87 38.6 403.52 39.35C399.27 39.78 395.01 39.52 390.84 38.61C385.27 37.4 380.27 34.8 374.96 32.84C372.47 31.93 369.92 31.24 367.29 30.83C364.74 30.45 362.28 30.43 360.23 32.18C358.06 34.04 356.13 35.83 353.55 37.15C351.08 38.4 348.4 39.27 345.64 39.58C340.26 40.2 334.77 39.19 329.41 38.71C325.05 38.33 320.39 37.98 316.16 39.39C314.39 39.97 311.84 41.05 311.42 43C322.66 43.63 328.64 56.63 326.76 66.93C325.75 72.5 316.46 80 312.2 77.66C309.5 76.18 310.72 73.65 311.5 71.99C313 68.8 313.17 64.91 309.47 63.27C306.28 61.86 303.67 66.47 303.61 66.47C302.78 66.51 295.23 63.4 289.64 58.2C284.88 59.07 283.76 56.01 284.59 53.3C285.42 50.58 292.18 46.46 295.96 45.36C298.7 44.56 306.18 43.32 307.57 43.15Z"
      id="b33qVxmtg"
    ></path>
    <path
      d="M312.72 280.62C297.23 280.62 282.84 276.04 269.56 266.87C290.45 260.76 307.66 257.71 321.18 257.71C334.7 257.71 350.3 262.37 367.99 271.69C346.64 277.64 328.21 280.62 312.72 280.62Z"
      id="aQ2ZL98dd"
    ></path>
    <path
      d="M294.76 288.19C297.61 280.67 343.32 199.52 347.88 184.69C342.73 184.69 301.56 184.69 296.41 184.69C292.95 195.97 277.37 266.75 275.17 280.88C268.25 303.15 254.01 375.3 252.19 380.3C250.27 385.56 261.04 391.04 263.91 384.57C268.47 374.29 279.35 345.83 284.19 328.45C288.73 312.16 292.43 297.5 294.24 289.2C294.45 288.89 294.62 288.56 294.76 288.19Z"
      id="d2HK3a01uL"
    ></path>
    <path
      d="M294.76 288.19C297.61 280.67 343.32 199.52 347.88 184.69C342.73 184.69 301.56 184.69 296.41 184.69C292.95 195.97 277.37 266.75 275.17 280.88C268.25 303.15 254.01 375.3 252.19 380.3C250.27 385.56 261.04 391.04 263.91 384.57C268.47 374.29 279.35 345.83 284.19 328.45C288.73 312.16 292.43 297.5 294.24 289.2C294.45 288.89 294.62 288.56 294.76 288.19Z"
      id="eCcQ9RiCL"
    ></path>
    <path
      d="M438.93 315.38C444.33 316.92 449.06 305.83 442.39 303.43C431.78 299.61 402.53 290.78 384.8 287.18C370.54 284.28 357.53 281.91 348.79 280.53C349.53 256.07 352.91 197.36 350.7 184.69C346.14 184.69 309.71 184.69 305.16 184.69C307.29 196.84 325.26 285.56 328.61 294.44C329.67 297.61 332.83 299.01 336.35 299.11C336.35 299.11 336.35 299.11 336.35 299.11C401.24 308.96 435.44 314.39 438.93 315.38Z"
      id="aEuKdJNTg"
    ></path>
    <path
      d="M447.63 299.89C449.18 300.16 451.4 300.82 454.29 301.87C453.97 303.7 451.08 320.09 445.62 351.04C441.22 351.58 439.1 350.45 439.25 347.64C439.4 344.83 439.5 342.49 439.56 340.62C438.96 338.17 434.14 318.55 433.54 316.1C433.41 315.56 433.74 315.02 434.28 314.89C434.28 314.88 434.29 314.88 434.3 314.88C434.66 314.8 437.6 314.14 437.96 314.06C439.59 311.72 440.54 309.75 440.82 308.16C441.04 306.9 440.86 305.09 440.27 302.73C440.27 302.73 440.27 302.73 440.27 302.73C440 301.66 440.65 300.58 441.73 300.31C441.77 300.3 441.81 300.29 441.85 300.28C444.46 299.8 446.39 299.67 447.63 299.89Z"
      id="d1BUZrnEAF"
    ></path>
    <path
      d="M268.67 389.3C268.67 390.88 268.41 393.18 267.88 396.2C266.02 396.2 249.38 396.2 217.95 396.2C216.65 391.97 217.4 389.68 220.19 389.34C222.99 389 225.31 388.69 227.16 388.42C229.47 387.4 247.95 379.26 250.26 378.24C250.77 378.02 251.36 378.25 251.58 378.75C251.59 378.76 251.59 378.77 251.59 378.77C251.74 379.12 252.89 381.89 253.04 382.24C255.62 383.43 257.73 384.03 259.35 384.03C260.62 384.03 262.37 383.53 264.59 382.55C264.59 382.55 264.59 382.55 264.59 382.55C265.6 382.1 266.78 382.55 267.23 383.56C267.25 383.6 267.26 383.63 267.28 383.67C268.21 386.17 268.67 388.04 268.67 389.3Z"
      id="bQ2YDZT8J"
    ></path>
    <path
      d="M293.59 184.69C287.36 213.02 272.22 224.26 269.56 267.69C299.82 282.68 337.2 257.01 368.35 271.62C377.25 251.18 364.79 201.95 350.55 184.69C330.48 178.96 311.5 178.96 293.59 184.69Z"
      id="b2P1KbGo23"
    ></path>
    <path
      d="M225.99 156.18C218.54 153.16 211.79 151.33 205.76 150.68C204.1 150.84 201.55 151.76 205.86 154.53C210.17 157.29 214.58 160.4 214.1 162.22C213.61 164.04 209.9 163.84 209.62 166.58C209.44 168.41 215.38 167.98 227.44 165.28C229.42 165.79 239.31 168.36 257.13 172.99L261.48 156.64C240.19 156.36 228.36 156.21 225.99 156.18ZM352.76 153.68C379.83 198.68 393.96 222.25 395.14 224.38C397.81 229.18 394.43 237.41 393.08 241.77C399.44 243.72 397.58 233.84 405.62 236.43C412.95 238.8 418.95 243.98 426.36 238.07C427.27 237.34 428.07 234.92 425.25 233.46C418.2 229.81 407.87 223.18 406.29 220.78C404.13 217.5 392.74 194.31 372.11 151.23C368.24 151.72 354.7 153.43 352.76 153.68Z"
      id="b3DBUQ0BRx"
    ></path>
    <path
      d="M296.54 99.41C296.94 133.53 279.22 157.29 232.82 155.68C232.74 160.09 232.16 195.36 232.09 199.76C275.31 200.02 310.54 178.46 312.54 131.56C313.06 119.41 313.1 106.84 311.57 96.55C308.57 97.12 298.04 99.13 296.54 99.41Z"
      id="c6CbsKDiYx"
    ></path>
    <path
      d="M296.19 99.3C301.03 138.66 291.53 165.32 288.63 195.06C294.83 194.3 344.44 188.21 350.65 187.44C352.75 197.34 354.55 207.55 356.12 218.08C360.77 217.51 397.92 212.94 402.56 212.37C385.18 157.86 357.67 117.42 320.03 91.04C319.93 91.05 319.42 91.11 318.52 91.22L318.51 91.24C305.12 96.07 297.68 98.76 296.19 99.3Z"
      id="d2Nli6twKe"
    ></path>
    <path
      d="M338.04 188.99C339.3 188.84 349.39 187.6 350.65 187.44C346.48 167.85 341.13 149.5 333.97 132.49C338.58 156.82 339.94 175.66 338.04 188.99Z"
      id="g5TSjSg0Zd"
    ></path>
  </defs>
  <g>
    <g>
      <g class="bruce">
        <g>
          <use
            xlink:href="#a5BId6bkI3"
            opacity="1"
            fill="#1a1a1a"
            fill-opacity="1"
          ></use>
          <g>
            <use
              xlink:href="#a5BId6bkI3"
              opacity="1"
              fill-opacity="0"
              stroke="#000000"
              stroke-width="1"
              stroke-opacity="0"
            ></use>
          </g>
        </g>
        <g>
          <use
            xlink:href="#cUTjJZlDV"
            opacity="1"
            fill="#1a1a1a"
            fill-opacity="1"
          ></use>
          <g>
            <use
              xlink:href="#cUTjJZlDV"
              opacity="1"
              fill-opacity="0"
              stroke="#000000"
              stroke-width="1"
              stroke-opacity="0"
            ></use>
          </g>
        </g>
        <g>
          <use
            xlink:href="#d1d13aswr"
            opacity="1"
            fill="#1a1a1a"
            fill-opacity="1"
          ></use>
          <g>
            <use
              xlink:href="#d1d13aswr"
              opacity="1"
              fill-opacity="0"
              stroke="#000000"
              stroke-width="1"
              stroke-opacity="0"
            ></use>
          </g>
        </g>
        <g>
          <use
            xlink:href="#e1poZGWmyq"
            opacity="1"
            fill="#3d3c3b"
            fill-opacity="1"
          ></use>
          <g>
            <use
              xlink:href="#e1poZGWmyq"
              opacity="1"
              fill-opacity="0"
              stroke="#000000"
              stroke-width="1"
              stroke-opacity="0"
            ></use>
          </g>
        </g>
        <g>
          <use
            xlink:href="#b19dKUfXiP"
            opacity="1"
            fill="#1a1a1a"
            fill-opacity="1"
          ></use>
          <g>
            <use
              xlink:href="#b19dKUfXiP"
              opacity="1"
              fill-opacity="0"
              stroke="#000000"
              stroke-width="1"
              stroke-opacity="0"
            ></use>
          </g>
        </g>
        <g>
          <use
            xlink:href="#e2KwUGXp"
            opacity="1"
            fill="#ca8a34"
            fill-opacity="1"
          ></use>
          <g>
            <use
              xlink:href="#e2KwUGXp"
              opacity="1"
              fill-opacity="0"
              stroke="#000000"
              stroke-width="1"
              stroke-opacity="0"
            ></use>
          </g>
        </g>
        <g>
          <use
            xlink:href="#aebgrkhHD"
            opacity="1"
            fill="#1a1a1a"
            fill-opacity="1"
          ></use>
          <g>
            <use
              xlink:href="#aebgrkhHD"
              opacity="1"
              fill-opacity="0"
              stroke="#000000"
              stroke-width="1"
              stroke-opacity="0"
            ></use>
          </g>
        </g>
        <g>
          <use
            xlink:href="#bSWyJLfmG"
            opacity="1"
            fill="#3d3c3b"
            fill-opacity="1"
          ></use>
          <g>
            <use
              xlink:href="#bSWyJLfmG"
              opacity="1"
              fill-opacity="0"
              stroke="#000000"
              stroke-width="1"
              stroke-opacity="0"
            ></use>
          </g>
        </g>
        <g>
          <use
            xlink:href="#a1JtUhUMSu"
            opacity="1"
            fill="#3d3c3b"
            fill-opacity="1"
          ></use>
          <g>
            <use
              xlink:href="#a1JtUhUMSu"
              opacity="1"
              fill-opacity="0"
              stroke="#000000"
              stroke-width="1"
              stroke-opacity="0"
            ></use>
          </g>
        </g>
        <g>
          <use
            xlink:href="#bOR6p0YHy"
            opacity="1"
            fill="#1a1a1a"
            fill-opacity="1"
          ></use>
          <g>
            <use
              xlink:href="#bOR6p0YHy"
              opacity="1"
              fill-opacity="0"
              stroke="#000000"
              stroke-width="1"
              stroke-opacity="0"
            ></use>
          </g>
        </g>
        <g>
          <use
            xlink:href="#ak5P2T9ZU"
            opacity="1"
            fill="#040404"
            fill-opacity="1"
          ></use>
          <g>
            <use
              xlink:href="#ak5P2T9ZU"
              opacity="1"
              fill-opacity="0"
              stroke="#000000"
              stroke-width="1"
              stroke-opacity="0"
            ></use>
          </g>
        </g>
        <g>
          <use
            xlink:href="#cgAPnRQIt"
            opacity="1"
            fill="#040404"
            fill-opacity="1"
          ></use>
          <g>
            <use
              xlink:href="#cgAPnRQIt"
              opacity="1"
              fill-opacity="0"
              stroke="#000000"
              stroke-width="1"
              stroke-opacity="0"
            ></use>
          </g>
        </g>
        <g>
          <use
            xlink:href="#aD43VVLsY"
            opacity="1"
            fill="#040404"
            fill-opacity="1"
          ></use>
          <g>
            <use
              xlink:href="#aD43VVLsY"
              opacity="1"
              fill-opacity="0"
              stroke="#000000"
              stroke-width="1"
              stroke-opacity="0"
            ></use>
          </g>
        </g>
        <g>
          <use
            xlink:href="#a1Utvs8oZz"
            opacity="1"
            fill="#fff999"
            fill-opacity="1"
          ></use>
          <g>
            <use
              xlink:href="#a1Utvs8oZz"
              opacity="1"
              fill-opacity="0"
              stroke="#000000"
              stroke-width="1"
              stroke-opacity="0"
            ></use>
          </g>
        </g>
        <g>
          <use
            xlink:href="#b7QBzqAjc"
            opacity="1"
            fill="#fff999"
            fill-opacity="1"
          ></use>
          <g>
            <use
              xlink:href="#b7QBzqAjc"
              opacity="1"
              fill-opacity="0"
              stroke="#000000"
              stroke-width="1"
              stroke-opacity="0"
            ></use>
          </g>
        </g>
        <g>
          <use
            xlink:href="#b2nPETa3k"
            opacity="1"
            fill="#1a1a1a"
            fill-opacity="1"
          ></use>
          <g>
            <use
              xlink:href="#b2nPETa3k"
              opacity="1"
              fill-opacity="0"
              stroke="#000000"
              stroke-width="1"
              stroke-opacity="0"
            ></use>
          </g>
        </g>
        <g>
          <use
            xlink:href="#bdC3xw8Py"
            opacity="1"
            fill="#1a1a1a"
            fill-opacity="1"
          ></use>
          <g>
            <use
              xlink:href="#bdC3xw8Py"
              opacity="1"
              fill-opacity="0"
              stroke="#000000"
              stroke-width="1"
              stroke-opacity="0"
            ></use>
          </g>
        </g>
        <g>
          <use
            xlink:href="#d10ZeNe62t"
            opacity="1"
            fill="#000000"
            fill-opacity="0"
          ></use>
          <g>
            <use
              xlink:href="#d10ZeNe62t"
              opacity="1"
              fill-opacity="0"
              stroke="#fff999"
              stroke-width="2"
              stroke-opacity="1"
            ></use>
          </g>
        </g>
        <g>
          <use
            xlink:href="#b40SzTOCD"
            opacity="1"
            fill="#000000"
            fill-opacity="0"
          ></use>
          <g>
            <use
              xlink:href="#b40SzTOCD"
              opacity="1"
              fill-opacity="0"
              stroke="#f2f2f2"
              stroke-width="4"
              stroke-opacity="1"
            ></use>
          </g>
        </g>
      </g>
      <g class="lucy">
        <g>
          <use
            xlink:href="#a1i0ZfjszH"
            opacity="1"
            fill="#ffd3a1"
            fill-opacity="1"
          ></use>
          <g>
            <use
              xlink:href="#a1i0ZfjszH"
              opacity="1"
              fill-opacity="0"
              stroke="#000000"
              stroke-width="1"
              stroke-opacity="0"
            ></use>
          </g>
        </g>
        <g>
          <use
            xlink:href="#b33qVxmtg"
            opacity="1"
            fill="#3d2216"
            fill-opacity="1"
          ></use>
          <g>
            <use
              xlink:href="#b33qVxmtg"
              opacity="1"
              fill-opacity="0"
              stroke="#000000"
              stroke-width="1"
              stroke-opacity="0"
            ></use>
          </g>
        </g>
        <g>
          <use
            xlink:href="#aQ2ZL98dd"
            opacity="1"
            fill="#002c5c"
            fill-opacity="1"
          ></use>
          <g>
            <use
              xlink:href="#aQ2ZL98dd"
              opacity="1"
              fill-opacity="0"
              stroke="#000000"
              stroke-width="1"
              stroke-opacity="0"
            ></use>
          </g>
        </g>
        <g>
          <use
            xlink:href="#d2HK3a01uL"
            opacity="1"
            fill="#ffd3a1"
            fill-opacity="1"
          ></use>
          <g>
            <use
              xlink:href="#d2HK3a01uL"
              opacity="1"
              fill-opacity="0"
              stroke="#000000"
              stroke-width="1"
              stroke-opacity="0"
            ></use>
          </g>
        </g>
        <g>
          <use
            xlink:href="#eCcQ9RiCL"
            opacity="1"
            fill="#000000"
            fill-opacity="0.1"
          ></use>
          <g>
            <use
              xlink:href="#eCcQ9RiCL"
              opacity="1"
              fill-opacity="0"
              stroke="#000000"
              stroke-width="1"
              stroke-opacity="0"
            ></use>
          </g>
        </g>
        <g>
          <use
            xlink:href="#aEuKdJNTg"
            opacity="1"
            fill="#ffd3a1"
            fill-opacity="1"
          ></use>
          <g>
            <use
              xlink:href="#aEuKdJNTg"
              opacity="1"
              fill-opacity="0"
              stroke="#000000"
              stroke-width="1"
              stroke-opacity="0"
            ></use>
          </g>
        </g>
        <g>
          <use
            xlink:href="#d1BUZrnEAF"
            opacity="1"
            fill="#e4e4e4"
            fill-opacity="1"
          ></use>
          <g>
            <use
              xlink:href="#d1BUZrnEAF"
              opacity="1"
              fill-opacity="0"
              stroke="#000000"
              stroke-width="1"
              stroke-opacity="0"
            ></use>
          </g>
        </g>
        <g>
          <use
            xlink:href="#bQ2YDZT8J"
            opacity="1"
            fill="#e4e4e4"
            fill-opacity="1"
          ></use>
          <g>
            <use
              xlink:href="#bQ2YDZT8J"
              opacity="1"
              fill-opacity="0"
              stroke="#000000"
              stroke-width="1"
              stroke-opacity="0"
            ></use>
          </g>
        </g>
        <g>
          <use
            xlink:href="#b2P1KbGo23"
            opacity="1"
            fill="#446b8d"
            fill-opacity="1"
          ></use>
          <g>
            <use
              xlink:href="#b2P1KbGo23"
              opacity="1"
              fill-opacity="0"
              stroke="#000000"
              stroke-width="1"
              stroke-opacity="0"
            ></use>
          </g>
        </g>
        <g>
          <use
            xlink:href="#b3DBUQ0BRx"
            opacity="1"
            fill="#ffd3a1"
            fill-opacity="1"
          ></use>
          <g>
            <use
              xlink:href="#b3DBUQ0BRx"
              opacity="1"
              fill-opacity="0"
              stroke="#000000"
              stroke-width="1"
              stroke-opacity="0"
            ></use>
          </g>
        </g>
        <g>
          <use
            xlink:href="#c6CbsKDiYx"
            opacity="1"
            fill="#9ad2cb"
            fill-opacity="1"
          ></use>
          <g>
            <use
              xlink:href="#c6CbsKDiYx"
              opacity="1"
              fill-opacity="0"
              stroke="#000000"
              stroke-width="1"
              stroke-opacity="0"
            ></use>
          </g>
        </g>
        <g>
          <use
            xlink:href="#d2Nli6twKe"
            opacity="1"
            fill="#c1dee2"
            fill-opacity="1"
          ></use>
          <g>
            <use
              xlink:href="#d2Nli6twKe"
              opacity="1"
              fill-opacity="0"
              stroke="#000000"
              stroke-width="1"
              stroke-opacity="0"
            ></use>
          </g>
        </g>
        <g>
          <use
            xlink:href="#g5TSjSg0Zd"
            opacity="1"
            fill="#000000"
            fill-opacity="0.1"
          ></use>
          <g>
            <use
              xlink:href="#g5TSjSg0Zd"
              opacity="1"
              fill-opacity="0"
              stroke="#000000"
              stroke-width="1"
              stroke-opacity="0"
            ></use>
          </g>
        </g>
      </g>
    </g>
  </g>
</svg>
