<?xml version="1.0" encoding="UTF-8" standalone="no"?>
<!DOCTYPE svg PUBLIC "-//W3C//DTD SVG 1.1//EN" "http://www.w3.org/Graphics/SVG/1.1/DTD/svg11.dtd">
<svg version="1.1" xmlns="http://www.w3.org/2000/svg" xmlns:xlink="http://www.w3.org/1999/xlink" preserveAspectRatio="xMidYMid meet" viewBox="0 0 456 399" width="456" height="399"><defs><path d="M104.13 80.28C103.9 78.64 102.05 65.5 101.82 63.86C100.28 52.91 107.91 42.79 118.86 41.25C126.46 40.18 133.66 43.53 137.87 49.35C138.42 49.93 139.04 50.9 139.73 52.33C144.13 61.39 153.06 89.33 149.31 94.16C146.76 94.52 126.32 97.39 123.76 97.75C123.74 97.67 123.73 97.59 123.71 97.51C113.98 97.41 105.52 90.21 104.13 80.28Z" id="a1WQjRspQh"></path><path d="M104.95 60.2C103.64 41.27 130.47 41.7 136.9 50.45C143.34 59.19 146.1 83.28 139.74 85.9C137.21 86.94 131.37 86.08 125.18 83.46C125.66 85.1 128.03 93.33 132.3 108.15L111.16 111.12L113.7 76.36C108.17 69.97 105.26 64.58 104.95 60.2Z" id="d1EJGWFNy1"></path><path d="M120.18 97.82C117.62 98.18 97.18 101.06 94.63 101.41C89.75 77.02 104.84 84.61 101.59 61.46C102.33 60.5 103.02 59.56 103.73 58.74C103.71 58.67 103.61 58.13 103.6 58.06C106.76 48.44 111.74 43.14 118.54 42.19C128.75 40.75 132.63 45.02 135.93 48.64C134.87 55.93 127.06 58.08 120.6 63.44C119.67 62.88 118.55 62.63 117.39 62.79C114.72 63.16 112.85 65.63 113.23 68.29C113.6 70.95 116.07 72.8 118.75 72.42C118.82 72.41 118.9 72.4 118.97 72.39C121.4 82.66 122.68 94.59 120.18 97.82Z" id="a9NmVlFxEv"></path><path d="M144.8 298.13L174.79 381.31L191.9 381.31L150.67 185.28L102.01 185.28L144.8 298.13Z" id="eqyg6GhF9"></path><path d="M90.22 278.55C89.5 280.16 67.02 298.49 22.8 333.55C23.68 335.04 30.73 347 31.61 348.49C84.12 314.74 111.71 295.62 114.4 291.13C118.42 284.38 138.65 222.32 149.18 185.28C145.33 185.28 126.08 185.28 91.43 185.28C91.34 245.85 90.94 276.94 90.22 278.55Z" id="diebrxd6Z"></path><path d="M22.35 332.09C29.52 340.64 33.5 345.38 34.3 346.33C35.27 357.02 38.87 369.03 45.09 382.34C44.91 382.49 44.02 383.24 42.41 384.59L20.79 358.82L14.73 348.88L13.39 350.01L7.7 343.23L22.35 332.09Z" id="a2mVRMMJF"></path><path d="M174.09 378.42C185.25 378.42 191.44 378.42 192.68 378.42C201.5 384.55 213.01 389.5 227.21 393.3C227.21 393.53 227.21 394.7 227.21 396.8L193.57 396.8L182.06 395.05L182.06 396.8L173.21 396.8L174.09 378.42Z" id="baaFjNwJ"></path><path d="M213.42 153.29C219.36 147.98 225.04 144 230.45 141.36C232.05 140.95 234.74 140.94 231.65 144.96C228.57 148.98 225.51 153.35 226.58 154.87C227.64 156.39 231.05 154.95 232.23 157.4C233.02 159.03 227.33 160.63 215.16 162.21C213.49 163.35 205.12 169.08 190.06 179.39L180.46 165.71C200.24 158.26 211.22 154.12 213.42 153.29ZM68 167.32C47.89 200.41 37.11 217.94 35.67 219.91C32.44 224.35 34.79 232.92 35.59 237.41C29.04 238.57 32.1 229 23.81 230.6C16.24 232.06 9.65 236.47 3.02 229.7C2.2 228.87 1.7 226.38 4.69 225.27C12.13 222.51 23.19 217.18 25.06 214.99C27.6 212 35.9 194.59 49.96 162.77C53.57 163.68 66.19 166.87 68 167.32Z" id="b11qhFmx0R"></path><path d="M129.04 97.44C144.95 114.51 149.74 153.78 160.64 159.52C170.94 164.94 186.15 161.01 204.26 155.58C204.74 156.82 208.59 166.76 209.07 168C192 184.57 156.81 197.49 143.29 188.36C121.69 173.75 119.05 125.49 121.28 98.35C122.84 98.17 128.27 97.53 129.04 97.44Z" id="ad9q3KoDF"></path><path d="M150.76 196.49C153.87 196.66 153.52 192.15 153.19 189.87C149.36 163.53 130.59 134.38 132.53 97.28C130.58 96.87 115.01 93.59 113.06 93.18C95.46 118.36 88.17 150.1 82.71 192.93C113.55 194.54 136.23 195.73 150.76 196.49Z" id="aMhzgquLO"></path><path d="M39.5 218.22C38.09 217.87 26.8 215.04 25.38 214.69C37.55 158.37 66.35 117.85 111.8 93.11C112.03 93.13 113.21 93.19 115.34 93.3C117.88 93.43 119.29 93.51 119.57 93.52C134.05 154.32 136.82 194.46 127.87 213.96C121.74 213.64 72.74 211.07 66.61 210.75C68.35 196.23 72.26 180.98 77.31 166.18C62.13 190.4 49.52 207.74 39.5 218.22Z" id="cECvthJN1"></path></defs><g><g><g><use xlink:href="#a1WQjRspQh" opacity="1" fill="#ffdf7f" fill-opacity="1"></use><g><use xlink:href="#a1WQjRspQh" opacity="1" fill-opacity="0" stroke="#000000" stroke-width="1" stroke-opacity="0"></use></g></g><g><use xlink:href="#d1EJGWFNy1" opacity="1" fill="#ebcaaa" fill-opacity="1"></use><g><use xlink:href="#d1EJGWFNy1" opacity="1" fill-opacity="0" stroke="#000000" stroke-width="1" stroke-opacity="0"></use></g></g><g><use xlink:href="#a9NmVlFxEv" opacity="1" fill="#ffdf7f" fill-opacity="1"></use><g><use xlink:href="#a9NmVlFxEv" opacity="1" fill-opacity="0" stroke="#000000" stroke-width="1" stroke-opacity="0"></use></g></g><g><use xlink:href="#eqyg6GhF9" opacity="1" fill="#002c5c" fill-opacity="1"></use><g><use xlink:href="#eqyg6GhF9" opacity="1" fill-opacity="0" stroke="#000000" stroke-width="1" stroke-opacity="0"></use></g></g><g><use xlink:href="#diebrxd6Z" opacity="1" fill="#446b8d" fill-opacity="1"></use><g><use xlink:href="#diebrxd6Z" opacity="1" fill-opacity="0" stroke="#000000" stroke-width="1" stroke-opacity="0"></use></g></g><g><use xlink:href="#a2mVRMMJF" opacity="1" fill="#191847" fill-opacity="1"></use><g><use xlink:href="#a2mVRMMJF" opacity="1" fill-opacity="0" stroke="#000000" stroke-width="1" stroke-opacity="0"></use></g></g><g><use xlink:href="#baaFjNwJ" opacity="1" fill="#191847" fill-opacity="1"></use><g><use xlink:href="#baaFjNwJ" opacity="1" fill-opacity="0" stroke="#000000" stroke-width="1" stroke-opacity="0"></use></g></g><g><use xlink:href="#b11qhFmx0R" opacity="1" fill="#ebcaaa" fill-opacity="1"></use><g><use xlink:href="#b11qhFmx0R" opacity="1" fill-opacity="0" stroke="#000000" stroke-width="1" stroke-opacity="0"></use></g></g><g><use xlink:href="#ad9q3KoDF" opacity="1" fill="#ff715b" fill-opacity="1"></use><g><use xlink:href="#ad9q3KoDF" opacity="1" fill-opacity="0" stroke="#000000" stroke-width="1" stroke-opacity="0"></use></g></g><g><use xlink:href="#aMhzgquLO" opacity="1" fill="#dde3e9" fill-opacity="1"></use><g><use xlink:href="#aMhzgquLO" opacity="1" fill-opacity="0" stroke="#000000" stroke-width="1" stroke-opacity="0"></use></g></g><g><use xlink:href="#cECvthJN1" opacity="1" fill="#f79f79" fill-opacity="1"></use><g><use xlink:href="#cECvthJN1" opacity="1" fill-opacity="0" stroke="#000000" stroke-width="1" stroke-opacity="0"></use></g></g></g></g></svg>