<?xml version="1.0" encoding="UTF-8"?>
<svg width="63px" height="62px" viewBox="0 0 63 62" version="1.1" xmlns="http://www.w3.org/2000/svg" xmlns:xlink="http://www.w3.org/1999/xlink">
    <!-- Generator: Sketch 56.3 (81716) - https://sketch.com -->
    <title>Sarah badge</title>
    <desc>Created with Sketch.</desc>
    <defs>
        <circle id="path-1" cx="28.4666667" cy="28.4666667" r="28.4666667"></circle>
    </defs>
    <g id="Sarah-&amp;-Lucy" stroke="none" stroke-width="1" fill="none" fill-rule="evenodd">
        <g id="Web—Features-Copy" transform="translate(-136.000000, -1337.000000)">
            <g id="Group-4" transform="translate(30.000000, 1126.000000)">
                <g id="Map" transform="translate(10.000000, 10.000000)">
                    <g id="Sarah-badge" transform="translate(98.933333, 203.466667)">
                        <circle id="Background" stroke="#FF715B" stroke-width="2.37599985" fill="#F2F2F2" cx="28.4666667" cy="28.4666667" r="29.6546666"></circle>
                        <g id="Human">
                            <mask id="mask-2" fill="white">
                                <use xlink:href="#path-1"></use>
                            </mask>
                            <circle stroke="#FF715B" stroke-width="2.37599985" cx="28.4666667" cy="28.4666667" r="29.6546666"></circle>
                            <g id="A-Human/Standing" mask="url(#mask-2)">
                                <g transform="translate(-10.266667, -3.733333)">
                                    <g id="Head/Front/Long" transform="translate(21.011293, 0.000000)">
                                        <path d="M24.4696391,11.4180875 C25.3632641,14.4902821 26.6657628,22.5201409 25.4400973,23.7368815 L17.9967645,23.7368815 C17.9954123,23.7130121 17.9941072,23.6892506 17.9928488,23.6655964 C15.2172295,23.2451408 13.0899992,20.8490027 13.0899992,17.9560232 L13.0899992,12.8160723 C13.0899992,9.62662812 15.6755546,7.04107272 18.8649988,7.04107272 C21.5723713,7.04107272 23.8446098,8.90410271 24.4696391,11.4180875 Z" id="Hair-Back" fill="#FFDF7F"></path>
                                        <g id="Head" stroke-width="1" transform="translate(13.859999, 8.084195)" fill="#EBCAAA">
                                            <path d="M2.12065016,8.9943515 C0.937953456,7.5838549 0.137479588,5.85527187 0.271239242,3.91834494 C0.656638048,-1.66248087 8.302789,-0.434770296 9.79012366,2.38195133 C11.2774583,5.19867295 11.1007243,12.3435209 9.17847677,12.8469477 C8.41188732,13.0477135 6.7788241,12.5559178 5.11674652,11.5380518 L6.1599996,19.0369744 L0,19.0369744 L2.12065016,8.9943515 Z" id="Head-[skin]"></path>
                                        </g>
                                        <path d="M17.6458231,16.1357483 C17.9296393,19.2333004 17.815934,22.7706375 16.9700979,23.6103146 L9.52676503,23.6103146 C9.11204464,16.289257 13.1200981,19.1242982 13.1200981,12.2313324 C13.3699847,11.9832653 13.6061073,11.7377357 13.8397527,11.5259907 L13.8314775,11.3232707 C15.1203737,8.6423257 16.7555577,7.30185319 18.7370295,7.30185319 C21.7092372,7.30185319 22.6473888,8.7070224 23.4461599,9.90003138 C22.848856,11.9823868 20.5308758,12.2911539 18.4712056,13.589143 C18.228428,13.3887313 17.9188525,13.2686181 17.5816655,13.2686181 C16.8020236,13.2686181 16.169999,13.9107727 16.169999,14.7029107 C16.169999,15.4950486 16.8020236,16.1372033 17.5816655,16.1372033 C17.6031671,16.1372033 17.6245563,16.1367149 17.6458231,16.1357483 Z" id="Hair-Front" fill="#FFDF7F"></path>
                                    </g>
                                    <g id="Bottom/Standing/Sprint" transform="translate(0.000000, 48.782027)">
                                        <path d="M53.4349872,-2.33542077 C48.4624826,1.71038705 50.1146177,36.8888811 49.7815742,37.3340758 C49.6335548,37.5319401 41.7839021,39.2583816 26.2326159,42.5134003 L26.8852125,45.2327145 C45.0580407,44.217382 54.6782458,43.0352334 55.7458278,41.6862687 C57.2742995,39.7549376 59.2180234,28.9965544 61.5769993,9.41111897 L53.4349872,-2.33542077 Z" id="leg-[skin]" fill="#EBCAAA" transform="translate(43.904808, 21.448647) rotate(-55.000000) translate(-43.904808, -21.448647) "></path>
                                        <path d="M53.4349872,-2.33542077 C48.4624826,1.71038705 50.1146177,36.8888811 49.7815742,37.3340758 C49.6335548,37.5319401 41.7839021,39.2583816 26.2326159,42.5134003 L26.8852125,45.2327145 C45.0580407,44.217382 54.6782458,43.0352334 55.7458278,41.6862687 C57.2742995,39.7549376 59.2180234,28.9965544 61.5769993,9.41111897 L53.4349872,-2.33542077 Z" id="shadow" fill-opacity="0.1" fill="#000000" transform="translate(43.904808, 21.448647) rotate(-55.000000) translate(-43.904808, -21.448647) "></path>
                                        <path d="M28.8236804,39.6350024 L29.9758381,44.013998 C43.5078265,45.4736896 52.4477397,43.5000769 55.6094647,40.5046878 C57.7172814,38.5077616 59.6656396,27.7785531 61.4545393,8.31706227 L52.7437308,-4.12326145 C40.9116622,4.79422585 47.7411983,33.6904552 47.43598,34.3546324 C47.1307616,35.0188097 39.9855982,35.5888196 28.8236804,39.6350024 Z" id="Pant" fill="#002C5C" transform="translate(45.139110, 20.191208) rotate(-55.000000) translate(-45.139110, -20.191208) "></path>
                                        <g id="Shoe/Flat-Sneaker-Shoe" transform="translate(57.238839, 48.656896) rotate(20.000000) translate(-57.238839, -48.656896) translate(49.423664, 43.460706)" fill="#E4E4E4">
                                            <path d="M0.303887576,7.56555855 C0.277295847,7.70917842 0.263999983,7.83604324 0.263999983,7.94615302 C0.263999983,8.39246633 0.343309328,9.04374844 0.501928018,9.89999936 C1.05419976,9.89999936 6.01755891,9.89999936 15.3920055,9.89999936 C15.7789458,8.70073998 15.5555814,8.05329844 14.7219123,7.95767472 C13.8882432,7.862051 13.1957001,7.77571044 12.644283,7.69865303 L6.19288232,5.00234062 C5.79454363,4.83585808 5.33625368,5.01907538 5.16247032,5.41428354 L4.92708794,5.94957664 C4.15532837,6.287156 3.5281936,6.45594569 3.04568362,6.45594569 C2.83796703,6.45594569 2.58831704,6.41427449 2.29673366,6.3309321 L2.29673416,6.33093035 C1.45559882,6.0905112 0.57882568,6.57748789 0.338406532,7.41862323 C0.324571908,7.46702533 0.313052515,7.51605942 0.303887576,7.56555855 Z" id="shoe"></path>
                                        </g>
                                        <polygon id="leg-[skin]" fill="#EBCAAA" points="33.3105861 0 20.0514451 32.275332 7.01977314 59.5614048 10.0943663 59.5614048 43.7326198 0"></polygon>
                                        <g id="Shoe/Flat-Sneaker-Shoe" transform="translate(6.149647, 51.702092)" fill="#E4E4E4">
                                            <path d="M0.303887576,7.56555855 C0.277295847,7.70917842 0.263999983,7.83604324 0.263999983,7.94615302 C0.263999983,8.39246633 0.343309328,9.04374844 0.501928018,9.89999936 C1.05419976,9.89999936 6.01755891,9.89999936 15.3920055,9.89999936 C15.7789458,8.70073998 15.5555814,8.05329844 14.7219123,7.95767472 C13.8882432,7.862051 13.1957001,7.77571044 12.644283,7.69865303 L6.19288232,5.00234062 C5.79454363,4.83585808 5.33625368,5.01907538 5.16247032,5.41428354 L4.92708794,5.94957664 C4.15532837,6.287156 3.5281936,6.45594569 3.04568362,6.45594569 C2.83796703,6.45594569 2.58831704,6.41427449 2.29673366,6.3309321 L2.29673416,6.33093035 C1.45559882,6.0905112 0.57882568,6.57748789 0.338406532,7.41862323 C0.324571908,7.46702533 0.313052515,7.51605942 0.303887576,7.56555855 Z" id="shoe"></path>
                                        </g>
                                        <path d="M8.19659469,53.8930366 L15.0283748,55.1920842 C20.310688,47.3177739 42.4173844,15.0304578 44.8411736,2.84217094e-14 L29.6320912,2.84217094e-14 C21.5378257,10.8654991 13.2317301,45.8884702 8.19659469,53.8930366 Z" id="Pant" fill="#446B8D"></path>
                                    </g>
                                    <g id="Body/Jacket-2" transform="translate(5.637176, 21.391049)">
                                        <path d="M50.984509,20.3524577 L60.3148202,16.179834 C61.9492732,14.5212767 63.5275704,13.2606965 65.049712,12.3980933 C65.5048613,12.2505335 66.2824626,12.205954 65.4528229,13.4399354 C64.6231831,14.6739169 63.8050246,16.009876 64.1365269,16.4423445 C64.4680291,16.874813 65.4283189,16.3974855 65.8077,17.1007642 C66.0606208,17.5696166 64.4419181,18.130462 60.9515921,18.7833004 L53.9637399,24.2390785 L50.984509,20.3524577 Z M13.2632551,21.5017283 L18.5398215,22.5678587 C13.2333338,32.638328 10.3875597,37.9756826 10.0024994,38.5799224 C9.13611357,39.9394621 9.94446908,42.4311012 10.2430722,43.7432155 C8.36980353,44.1872631 9.10856316,41.3160968 6.73797784,41.9155702 C4.5742175,42.4627417 2.73960964,43.8669789 0.721991736,41.973141 C0.473937471,41.7403048 0.292350021,41.0125246 1.13809266,40.6392497 C3.24514601,39.7092856 6.35813987,37.9679467 6.86291209,37.2918887 C7.55125918,36.3699629 9.68470686,31.1065761 13.2632551,21.5017283 Z" id="Arms-[skin]" fill="#EBCAAA"></path>
                                        <path d="M31.7235921,2.5689168 L33.9078361,1.98742392 C39.1566957,6.33722482 42.1313933,17.630523 45.4839036,18.8665211 C48.6535663,20.0351074 52.847356,18.2690249 57.8127082,15.9453657 L59.6962358,19.381949 C55.484907,24.9241994 45.9356908,30.1307155 41.6944973,28.0064122 C34.9137107,24.6100928 32.191086,10.5987115 31.7235921,2.5689168 Z" id="Coat-Back" fill="#FF715B" transform="translate(45.709914, 15.239682) rotate(5.000000) translate(-45.709914, -15.239682) "></path>
                                        <path d="M23.1747768,29.8926467 C32.102668,29.8926467 38.6698376,29.8926467 42.8762857,29.8926467 C43.7765441,29.8926467 43.6069076,28.5688842 43.4767698,27.9009064 C41.9748221,20.1916349 36.1117881,11.8814134 36.1117881,0.907459545 L30.4289455,0 C25.7285046,7.69824986 24.1030107,17.1763541 23.1747768,29.8926467 Z" id="Shirt" fill="#DDE3E9"></path>
                                        <path d="M21.2097503,22.0873011 C17.1934652,29.4646656 13.8175602,34.7760149 11.0820354,38.0213489 L6.95243305,37.1976806 C9.61253506,20.3979744 17.3158355,7.99874753 30.0623343,-9.9475983e-14 L31.0880524,-9.9475983e-14 L32.3124363,0 C37.4141123,17.7092817 38.8205541,29.5090107 36.5317616,35.3991869 L18.797319,35.3991869 C19.0778955,31.0892575 19.9775321,26.5313497 21.2097503,22.0873011 Z" id="Coat-Front" fill="#F79F79"></path>
                                    </g>
                                </g>
                            </g>
                        </g>
                    </g>
                </g>
            </g>
        </g>
    </g>
</svg>